<svg width="71" height="22" viewBox="0 0 71 22" fill="none" xmlns="http://www.w3.org/2000/svg">
<path d="M2.78899 16.0941H0L5.57799 0.649002H8.34585L13.9238 16.0941H11.0715L9.82486 12.5234H4.05672L2.78899 16.0941ZM6.6133 5.25507L4.83848 10.2415H9.0431L7.26829 5.25507C7.21194 5.04378 7.14856 4.83249 7.07813 4.6212C7.0077 4.40992 6.96544 4.2268 6.95135 4.07186C6.92318 4.21272 6.87388 4.39583 6.80345 4.6212C6.74711 4.83249 6.68372 5.04378 6.6133 5.25507Z" fill="#1D0B30"/>
<path d="M17.4241 16.0941H14.8464V5.65651H17.2128L17.5298 7.51584L17.234 7.2623C17.4452 6.75521 17.8326 6.3115 18.396 5.93119C18.9595 5.53678 19.6638 5.33958 20.5089 5.33958C21.4245 5.33958 22.171 5.57904 22.7486 6.05796C23.3402 6.53688 23.7486 7.17074 23.974 7.95955H23.5514C23.7064 7.17074 24.1008 6.53688 24.7347 6.05796C25.3826 5.57904 26.1644 5.33958 27.0799 5.33958C28.3477 5.33958 29.3196 5.69877 29.9957 6.41715C30.6718 7.12144 31.0099 8.07223 31.0099 9.26953V16.0941H28.4533V9.94565C28.4533 9.1991 28.2632 8.63567 27.8828 8.25535C27.5166 7.86095 27.0236 7.66374 26.4038 7.66374C26.0094 7.66374 25.6432 7.7553 25.3051 7.93842C24.9812 8.12153 24.7206 8.39621 24.5234 8.76244C24.3262 9.12867 24.2276 9.60055 24.2276 10.1781V16.0941H21.6499V9.92452C21.6499 9.19206 21.4667 8.63567 21.1005 8.25535C20.7343 7.87503 20.2483 7.68487 19.6426 7.68487C19.2341 7.68487 18.8609 7.77643 18.5228 7.95955C18.1847 8.12858 17.9171 8.40325 17.7199 8.78357C17.5227 9.1498 17.4241 9.61463 17.4241 10.1781V16.0941Z" fill="#1D0B30"/>
<path d="M32.9065 20.9326V5.65651H35.2941L35.4631 7.24117C35.773 6.63548 36.2519 6.17065 36.8999 5.84667C37.5478 5.50861 38.2591 5.33958 39.0339 5.33958C40.034 5.33958 40.8932 5.56496 41.6116 6.0157C42.344 6.46645 42.9145 7.09327 43.323 7.89616C43.7315 8.69905 43.9357 9.64985 43.9357 10.7485C43.9357 11.8331 43.7456 12.798 43.3652 13.6432C42.9849 14.4883 42.4285 15.1574 41.6961 15.6504C40.9777 16.1293 40.0973 16.3688 39.055 16.3688C38.2803 16.3688 37.5689 16.2209 36.921 15.9251C36.2871 15.6293 35.8082 15.2208 35.4842 14.6996V20.9326H32.9065ZM35.5054 10.8753C35.5054 11.4951 35.6251 12.0444 35.8645 12.5234C36.104 13.0023 36.4421 13.3826 36.8787 13.6643C37.3295 13.9319 37.8506 14.0658 38.4422 14.0658C39.0479 14.0658 39.5691 13.9319 40.0058 13.6643C40.4424 13.3826 40.7735 13.0023 40.9988 12.5234C41.2242 12.0444 41.3369 11.4951 41.3369 10.8753C41.3369 10.2555 41.2242 9.70619 40.9988 9.22727C40.7735 8.74835 40.4424 8.37508 40.0058 8.10745C39.5691 7.82573 39.0479 7.68487 38.4422 7.68487C37.8506 7.68487 37.3295 7.81869 36.8787 8.08632C36.4421 8.35395 36.104 8.72722 35.8645 9.20614C35.6251 9.68506 35.5054 10.2415 35.5054 10.8753Z" fill="#1D0B30"/>
<path d="M47.9532 16.0941H45.3966V0.374329H47.9532V16.0941Z" fill="#1D0B30"/>
<path d="M50.0233 16.0941V5.65651H52.601V16.0941H50.0233ZM51.291 3.56477C50.8543 3.56477 50.4811 3.41687 50.1712 3.12106C49.8754 2.81118 49.7275 2.4379 49.7275 2.00124C49.7275 1.56458 49.8754 1.19835 50.1712 0.902547C50.4811 0.606745 50.8543 0.458844 51.291 0.458844C51.7277 0.458844 52.0939 0.606745 52.3897 0.902547C52.6996 1.19835 52.8545 1.56458 52.8545 2.00124C52.8545 2.4379 52.6996 2.81118 52.3897 3.12106C52.0939 3.41687 51.7277 3.56477 51.291 3.56477Z" fill="#1D0B30"/>
<path d="M53.595 5.65651H60.1449V7.81165H53.595V5.65651ZM60.1661 0.479972V2.67736C60.0252 2.67736 59.8773 2.67736 59.7224 2.67736C59.5815 2.67736 59.4336 2.67736 59.2787 2.67736C58.6307 2.67736 58.194 2.8323 57.9687 3.14219C57.7574 3.45208 57.6517 3.86761 57.6517 4.38879V16.0941H55.0952V4.38879C55.0952 3.43095 55.2501 2.66328 55.56 2.08576C55.8699 1.49415 56.3065 1.06453 56.87 0.796903C57.4334 0.515187 58.0884 0.374329 58.835 0.374329C59.0462 0.374329 59.2646 0.381371 59.4899 0.395457C59.7294 0.409543 59.9548 0.437714 60.1661 0.479972Z" fill="#1D0B30"/>
<path d="M62.6987 5.65651L66.1004 15.2912L64.7059 17.9323L59.9731 5.65651H62.6987ZM60.2478 20.9326V18.7986H61.7902C62.1282 18.7986 62.424 18.7563 62.6776 18.6718C62.9311 18.6014 63.1565 18.4605 63.3537 18.2492C63.565 18.038 63.7411 17.7281 63.8819 17.3196L68.2133 5.65651H70.8755L65.7624 18.4183C65.3821 19.3761 64.9031 20.0734 64.3256 20.51C63.7481 20.9467 63.0297 21.165 62.1705 21.165C61.8043 21.165 61.4592 21.1439 61.1352 21.1016C60.8253 21.0735 60.5295 21.0171 60.2478 20.9326Z" fill="#1D0B30"/>
</svg>
