<svg width="17" height="17" viewBox="0 0 17 17" fill="none" xmlns="http://www.w3.org/2000/svg">
<path d="M8.50037 2.20801C11.9731 2.20818 14.7914 5.02721 14.7914 8.5C14.7912 11.9726 11.973 14.7908 8.50037 14.791C5.02758 14.791 2.20855 11.9727 2.20837 8.5C2.20837 5.02711 5.02747 2.20801 8.50037 2.20801ZM9.45154 5.88086C9.13292 5.56258 8.62298 5.54253 8.28064 5.82129L8.21521 5.88086C7.89679 6.19928 7.87627 6.7093 8.15466 7.05176L8.21521 7.11816L8.72205 7.625H6.16638C5.68609 7.62518 5.29138 8.01967 5.29138 8.5C5.29156 8.98018 5.6862 9.37482 6.16638 9.375H8.72107L8.21521 9.88086C7.89679 10.1993 7.87627 10.7093 8.15466 11.0518L8.21521 11.1182C8.38922 11.2921 8.61269 11.375 8.83337 11.375C9.02657 11.375 9.22171 11.3111 9.38416 11.1787L9.45154 11.1182L11.4515 9.11816C11.77 8.79968 11.7906 8.28972 11.5121 7.94727L11.4515 7.88086L9.45154 5.88086Z" fill="url(#paint0_linear_2660_11147)" stroke="url(#paint1_linear_2660_11147)" stroke-width="0.75"/>
<defs>
<linearGradient id="paint0_linear_2660_11147" x1="4.80677" y1="4.0188" x2="15.2489" y2="14.458" gradientUnits="userSpaceOnUse">
<stop stop-color="#A755FF"/>
<stop offset="1" stop-color="#6800D7"/>
</linearGradient>
<linearGradient id="paint1_linear_2660_11147" x1="4.80677" y1="4.0188" x2="15.2489" y2="14.458" gradientUnits="userSpaceOnUse">
<stop stop-color="#A755FF"/>
<stop offset="1" stop-color="#6800D7"/>
</linearGradient>
</defs>
</svg>
