<svg width="12" height="12" viewBox="0 0 12 12" fill="none" xmlns="http://www.w3.org/2000/svg">
<path d="M6 1.5C8.48386 1.5 10.5 3.51614 10.5 6C10.5 8.48386 8.48386 10.5 6 10.5C3.51614 10.5 1.5 8.48386 1.5 6C1.5 3.51614 3.51614 1.5 6 1.5ZM6.80273 3.82129C6.4828 3.56069 6.0172 3.56069 5.69727 3.82129L5.63184 3.88184C5.29157 4.2221 5.29157 4.7779 5.63184 5.11816L5.63867 5.125H4.25C3.76886 5.125 3.375 5.51886 3.375 6C3.375 6.48114 3.76886 6.875 4.25 6.875H5.63867L5.63184 6.88184C5.29157 7.2221 5.29157 7.7779 5.63184 8.11816C5.80554 8.29187 6.02955 8.375 6.25 8.375C6.47045 8.375 6.69446 8.29187 6.86816 8.11816L8.36816 6.61816C8.70843 6.2779 8.70843 5.7221 8.36816 5.38184L6.86816 3.88184L6.80273 3.82129Z" fill="url(#paint0_linear_4012_29231)" stroke="url(#paint1_linear_4012_29231)"/>
<defs>
<linearGradient id="paint0_linear_4012_29231" x1="3.23005" y1="2.63934" x2="11.0616" y2="10.4687" gradientUnits="userSpaceOnUse">
<stop stop-color="#A755FF"/>
<stop offset="1" stop-color="#6800D7"/>
</linearGradient>
<linearGradient id="paint1_linear_4012_29231" x1="3.23005" y1="2.63934" x2="11.0616" y2="10.4687" gradientUnits="userSpaceOnUse">
<stop stop-color="#A755FF"/>
<stop offset="1" stop-color="#6800D7"/>
</linearGradient>
</defs>
</svg>
