<svg width="72" height="73" viewBox="0 0 72 73" fill="none" xmlns="http://www.w3.org/2000/svg">
<path opacity="0.4" d="M43.7598 7.45734C44.4097 6.83328 45.4159 6.8431 46.0264 7.45343L56.3125 17.7396H57.7197C59.0719 17.7396 61.0124 17.7496 62.6191 18.638C63.4087 19.0746 64.1201 19.7259 64.6387 20.7122C65.1598 21.7037 65.5 23.0599 65.5 24.9202C65.5 27.3839 65.0299 28.9809 64.3135 30.0218C63.6943 30.9214 62.8596 31.4508 61.875 31.7562L61.4443 31.8734C60.6541 32.0416 59.8254 32.0999 58.9199 32.0999H13.0801C12.1844 32.0999 11.3052 32.0694 10.4971 31.8743L10.4902 31.8724L10.1709 31.7913C9.54121 31.6138 8.96579 31.3373 8.46484 30.8978L8.2207 30.6634L8.21387 30.6566L8.00879 30.4378C7.0185 29.3084 6.50003 27.5949 6.5 24.9202C6.5 23.06 6.83992 21.7045 7.36133 20.7132C7.88022 19.7268 8.59234 19.0747 9.38379 18.638C10.9942 17.7495 12.9421 17.7396 14.3096 17.7396H15.7178L15.8643 17.5931L25.9668 7.46027C26.6167 6.8336 27.625 6.84228 28.2363 7.45343C28.8568 8.10351 28.8455 9.10687 28.2363 9.71613L20.2129 17.7396H51.7871L43.7637 9.71613C43.1447 9.06735 43.1543 8.06688 43.7598 7.45734Z" fill="#B6B3B9" stroke="#B6B3B9"/>
<path d="M56.5986 55.665V55.6669C56.0593 58.4983 55.3579 61.0531 53.6162 62.915C51.8947 64.7552 49.0727 65.9999 44.0996 65.9999H27.2695C22.3814 65.9999 19.47 64.552 17.666 62.5507C15.9575 60.6554 15.1823 58.2003 14.7373 55.7968L14.6533 55.3173L10.9912 32.9697C11.707 33.0832 12.4339 33.0995 13.0801 33.0995H58.9795C59.6441 33.0995 60.3231 33.0663 60.9873 32.9638L56.5986 55.665ZM33.833 42.3564C32.7677 41.2914 31.0115 41.2912 29.9463 42.3564C28.8811 43.4216 28.8813 45.1778 29.9463 46.2431L32.1426 48.4394L29.8564 50.7265C28.7912 51.7917 28.7913 53.5479 29.8564 54.6132C30.4051 55.1619 31.1044 55.4198 31.7998 55.4199C32.4953 55.4199 33.1945 55.1619 33.7432 54.6132L36.0293 52.3261L38.2266 54.5234C38.7753 55.0721 39.4745 55.33 40.1699 55.33C40.8629 55.33 41.5586 55.0729 42.1064 54.5283L42.1074 54.5292C43.214 53.4594 43.2051 51.7285 42.1133 50.6367L39.917 48.4404L42.0234 46.3339C43.0887 45.2687 43.0887 43.5115 42.0234 42.4462C40.9583 41.3812 39.202 41.3813 38.1367 42.4462L36.0293 44.5527L33.833 42.3564Z" fill="#B6B3B9" stroke="#B6B3B9"/>
</svg>
