<svg width="123" height="96" viewBox="0 0 123 96" fill="none" xmlns="http://www.w3.org/2000/svg">
<g clip-path="url(#clip0_2550_25145)">
<rect x="0.541748" y="0.393555" width="122.417" height="95.2129" rx="6" fill="#E8E8E8"/>
<g filter="url(#filter0_d_2550_25145)">
<path d="M17.6919 32.9198C17.6919 25.0811 24.0464 18.7266 31.8851 18.7266H239.921C247.759 18.7266 254.114 25.0811 254.114 32.9198V768.88C254.114 776.719 247.759 783.073 239.921 783.073H31.8851C24.0464 783.073 17.6919 776.719 17.6919 768.88V32.9198Z" fill="black"/>
<rect x="44.9333" y="45.9678" width="26.8665" height="26.8665" rx="6.65413" fill="white"/>
<rect x="44.9333" y="45.9678" width="26.8665" height="26.8665" rx="6.65413" stroke="#595959" stroke-width="0.25"/>
<path d="M68.5433 61.5779C66.2249 61.4957 62.4927 61.5872 58.0773 62.5491C54.9436 63.2295 51.1126 64.8272 48.198 66.1809L60.4806 54.502L68.5433 61.5802V61.5779Z" fill="url(#paint0_linear_2550_25145)" fill-opacity="0.5"/>
<path d="M67.4878 58.2598C65.1882 58.5624 61.522 59.2757 57.3304 60.9578C54.357 62.1497 50.8463 64.3621 48.198 66.1803L58.3506 52.6221L67.4878 58.2598Z" fill="url(#paint1_linear_2550_25145)"/>
<path d="M81.7546 66.4014H80.1276V54.1481H81.7546L85.9746 64.4524L90.1946 54.1481H91.8555V66.4014H90.2285V61.5543C90.2285 60.9781 90.2285 60.4866 90.2285 60.0798C90.2285 59.6731 90.2341 59.3228 90.2454 59.0291C90.2567 58.7353 90.268 58.4754 90.2793 58.2495C90.2906 58.0122 90.3076 57.7862 90.3302 57.5716L86.7542 66.4014H85.195L81.636 57.6054C81.6811 57.8992 81.7094 58.3512 81.7207 58.9613C81.7433 59.5714 81.7546 60.3058 81.7546 61.1645V66.4014ZM94.7595 58.1139L97.6745 66.181L96.6916 67.5369L93.0817 58.1139H94.7595ZM93.302 70.1129V68.808H94.3697C94.6296 68.808 94.8669 68.7797 95.0815 68.7232C95.2962 68.678 95.4939 68.5707 95.6747 68.4012C95.8555 68.243 96.008 67.9888 96.1323 67.6386L99.6235 58.1139H101.267L97.3525 68.2656C97.0701 68.9774 96.7142 69.4915 96.2848 69.8079C95.8555 70.1242 95.3244 70.2824 94.6917 70.2824C94.4319 70.2824 94.1889 70.2655 93.963 70.2316C93.737 70.209 93.5167 70.1694 93.302 70.1129ZM106.055 57.4529C106.055 56.7524 106.23 56.1366 106.58 55.6056C106.931 55.0746 107.422 54.6622 108.055 54.3684C108.699 54.0747 109.439 53.9278 110.275 53.9278C111.055 53.9278 111.732 54.069 112.309 54.3515C112.896 54.6226 113.354 55.0124 113.681 55.5209C114.02 56.0293 114.213 56.6394 114.258 57.3512H112.58C112.535 56.7411 112.309 56.2666 111.902 55.9276C111.495 55.5887 110.947 55.4192 110.258 55.4192C109.49 55.4192 108.874 55.6 108.411 55.9615C107.947 56.3118 107.716 56.792 107.716 57.4021C107.716 57.8992 107.857 58.3003 108.14 58.6054C108.422 58.8991 108.851 59.1138 109.428 59.2494L111.444 59.7239C112.45 59.9499 113.201 60.3397 113.698 60.8933C114.207 61.4357 114.461 62.1362 114.461 62.9949C114.461 63.7293 114.28 64.3676 113.919 64.91C113.569 65.4523 113.066 65.8703 112.41 66.1641C111.766 66.4579 111.009 66.6047 110.139 66.6047C109.315 66.6047 108.586 66.4692 107.953 66.198C107.332 65.9155 106.84 65.5201 106.479 65.0116C106.128 64.4919 105.931 63.8874 105.885 63.1982H107.58C107.592 63.7858 107.829 64.2546 108.292 64.6049C108.755 64.9439 109.371 65.1133 110.139 65.1133C110.953 65.1133 111.597 64.9326 112.071 64.571C112.557 64.2094 112.8 63.7293 112.8 63.1304C112.8 62.6446 112.665 62.2492 112.393 61.9441C112.122 61.639 111.693 61.4187 111.105 61.2831L109.089 60.8255C108.094 60.5996 107.337 60.2041 106.818 59.6392C106.309 59.063 106.055 58.3342 106.055 57.4529ZM115.057 58.1139H119.904V59.4528H115.057V58.1139ZM118.277 66.4014H116.684V55.5209H118.277V66.4014ZM120.37 62.2492C120.37 61.4018 120.556 60.6504 120.929 59.9951C121.302 59.3398 121.81 58.8257 122.454 58.4528C123.109 58.08 123.855 57.8936 124.691 57.8936C125.527 57.8936 126.267 58.08 126.911 58.4528C127.555 58.8257 128.064 59.3398 128.437 59.9951C128.81 60.6504 128.996 61.4018 128.996 62.2492C128.996 63.0965 128.81 63.8479 128.437 64.5032C128.064 65.1585 127.555 65.6726 126.911 66.0455C126.267 66.4183 125.527 66.6047 124.691 66.6047C123.855 66.6047 123.109 66.4183 122.454 66.0455C121.81 65.6726 121.302 65.1585 120.929 64.5032C120.556 63.8479 120.37 63.0965 120.37 62.2492ZM121.98 62.2492C121.98 62.8254 122.093 63.3338 122.319 63.7745C122.556 64.2151 122.878 64.5597 123.285 64.8083C123.691 65.0568 124.16 65.1811 124.691 65.1811C125.222 65.1811 125.691 65.0568 126.098 64.8083C126.505 64.5597 126.821 64.2151 127.047 63.7745C127.284 63.3338 127.403 62.8254 127.403 62.2492C127.403 61.6616 127.284 61.1532 127.047 60.7238C126.821 60.2832 126.505 59.9386 126.098 59.69C125.691 59.4415 125.222 59.3172 124.691 59.3172C124.16 59.3172 123.691 59.4415 123.285 59.69C122.878 59.9386 122.556 60.2832 122.319 60.7238C122.093 61.1532 121.98 61.6616 121.98 62.2492ZM135.166 58.0461V59.5036H134.454C133.697 59.5036 133.098 59.7239 132.658 60.1646C132.228 60.5939 132.014 61.2097 132.014 62.0119V66.4014H130.421V58.1308H131.912L132.047 59.7917H131.895C132.008 59.2494 132.279 58.8087 132.708 58.4698C133.138 58.1195 133.674 57.9444 134.319 57.9444C134.465 57.9444 134.601 57.9557 134.725 57.9783C134.861 57.9896 135.008 58.0122 135.166 58.0461ZM139.599 66.6047C138.797 66.6047 138.085 66.424 137.464 66.0624C136.842 65.6896 136.357 65.1811 136.006 64.5371C135.656 63.8818 135.481 63.1248 135.481 62.2661C135.481 61.3961 135.65 60.6335 135.989 59.9781C136.34 59.3228 136.814 58.8087 137.413 58.4359C138.023 58.063 138.729 57.8766 139.531 57.8766C140.322 57.8766 141.006 58.0461 141.582 58.385C142.17 58.724 142.622 59.1985 142.938 59.8087C143.266 60.4188 143.429 61.1362 143.429 61.961V62.5542L136.328 62.5712L136.362 61.5034H141.836C141.836 60.8142 141.627 60.2606 141.209 59.8426C140.791 59.4245 140.232 59.2155 139.531 59.2155C139 59.2155 138.543 59.3341 138.159 59.5714C137.786 59.7974 137.498 60.1363 137.294 60.5883C137.102 61.0289 137.006 61.5599 137.006 62.1814C137.006 63.1756 137.232 63.9439 137.684 64.4863C138.136 65.0173 138.786 65.2828 139.633 65.2828C140.255 65.2828 140.763 65.1585 141.158 64.91C141.554 64.6614 141.819 64.2998 141.955 63.8253H143.446C143.243 64.7066 142.808 65.3901 142.141 65.876C141.475 66.3618 140.627 66.6047 139.599 66.6047Z" fill="white"/>
<rect x="45.232" y="93.7206" width="181.342" height="39.8274" rx="9.74499" fill="url(#paint2_linear_2550_25145)"/>
<rect x="45.232" y="93.7206" width="181.342" height="39.8274" rx="9.74499" stroke="url(#paint3_linear_2550_25145)" stroke-width="0.847391"/>
</g>
</g>
<defs>
<filter id="filter0_d_2550_25145" x="7.5232" y="5.16831" width="278.792" height="806.716" filterUnits="userSpaceOnUse" color-interpolation-filters="sRGB">
<feFlood flood-opacity="0" result="BackgroundImageFix"/>
<feColorMatrix in="SourceAlpha" type="matrix" values="0 0 0 0 0 0 0 0 0 0 0 0 0 0 0 0 0 0 127 0" result="hardAlpha"/>
<feOffset dx="11.0161" dy="7.62652"/>
<feGaussianBlur stdDeviation="10.5924"/>
<feComposite in2="hardAlpha" operator="out"/>
<feColorMatrix type="matrix" values="0 0 0 0 0 0 0 0 0 0 0 0 0 0 0 0 0 0 0.05 0"/>
<feBlend mode="normal" in2="BackgroundImageFix" result="effect1_dropShadow_2550_25145"/>
<feBlend mode="normal" in="SourceGraphic" in2="effect1_dropShadow_2550_25145" result="shape"/>
</filter>
<linearGradient id="paint0_linear_2550_25145" x1="52.7351" y1="56.4165" x2="60.6345" y2="70.1737" gradientUnits="userSpaceOnUse">
<stop stop-color="#A755FF"/>
<stop offset="1" stop-color="#6800D7"/>
</linearGradient>
<linearGradient id="paint1_linear_2550_25145" x1="52.4997" y1="54.8447" x2="62.4915" y2="69.0563" gradientUnits="userSpaceOnUse">
<stop stop-color="#A755FF"/>
<stop offset="1" stop-color="#6800D7"/>
</linearGradient>
<linearGradient id="paint2_linear_2550_25145" x1="85.4374" y1="99.9649" x2="98.9891" y2="160.648" gradientUnits="userSpaceOnUse">
<stop stop-color="#A755FF"/>
<stop offset="1" stop-color="#6800D7"/>
</linearGradient>
<linearGradient id="paint3_linear_2550_25145" x1="85.4374" y1="99.9649" x2="98.9891" y2="160.648" gradientUnits="userSpaceOnUse">
<stop stop-color="#A755FF"/>
<stop offset="1" stop-color="#6800D7"/>
</linearGradient>
<clipPath id="clip0_2550_25145">
<rect x="0.541748" y="0.393555" width="122.417" height="95.2129" rx="6" fill="white"/>
</clipPath>
</defs>
</svg>
