<svg width="123" height="96" viewBox="0 0 123 96" fill="none" xmlns="http://www.w3.org/2000/svg">
<g clip-path="url(#clip0_2550_24952)">
<rect x="0.041748" y="0.393555" width="122.417" height="95.2129" rx="6" fill="#E8E8E8"/>
<g filter="url(#filter0_d_2550_24952)">
<path d="M17.1919 32.9198C17.1919 25.0811 23.5464 18.7266 31.3851 18.7266H239.421C247.259 18.7266 253.614 25.0811 253.614 32.9198V768.88C253.614 776.719 247.259 783.073 239.421 783.073H31.3851C23.5464 783.073 17.1919 776.719 17.1919 768.88V32.9198Z" fill="white"/>
<rect x="44.3083" y="45.8428" width="27.1165" height="27.1165" rx="6.77913" fill="url(#paint0_linear_2550_24952)"/>
<path d="M68.0433 61.5779C65.7249 61.4957 61.9927 61.5872 57.5773 62.5491C54.4436 63.2295 50.6126 64.8272 47.698 66.1809L59.9806 54.502L68.0433 61.5802V61.5779Z" fill="#A27DF5"/>
<path d="M66.9878 58.2598C64.6882 58.5624 61.022 59.2757 56.8304 60.9578C53.857 62.1497 50.3463 64.3621 47.698 66.1803L57.8506 52.6221L66.9878 58.2598Z" fill="white"/>
<path d="M81.2546 66.4014H79.6276V54.1481H81.2546L85.4746 64.4524L89.6946 54.1481H91.3555V66.4014H89.7285V61.5543C89.7285 60.9781 89.7285 60.4866 89.7285 60.0798C89.7285 59.6731 89.7341 59.3228 89.7454 59.0291C89.7567 58.7353 89.768 58.4754 89.7793 58.2495C89.7906 58.0122 89.8076 57.7862 89.8302 57.5716L86.2542 66.4014H84.695L81.136 57.6054C81.1811 57.8992 81.2094 58.3512 81.2207 58.9613C81.2433 59.5714 81.2546 60.3058 81.2546 61.1645V66.4014ZM94.2595 58.1139L97.1745 66.181L96.1916 67.5369L92.5817 58.1139H94.2595ZM92.802 70.1129V68.808H93.8697C94.1296 68.808 94.3669 68.7797 94.5815 68.7232C94.7962 68.678 94.9939 68.5707 95.1747 68.4012C95.3555 68.243 95.508 67.9888 95.6323 67.6386L99.1235 58.1139H100.767L96.8525 68.2656C96.5701 68.9774 96.2142 69.4915 95.7848 69.8079C95.3555 70.1242 94.8244 70.2824 94.1917 70.2824C93.9319 70.2824 93.6889 70.2655 93.463 70.2316C93.237 70.209 93.0167 70.1694 92.802 70.1129ZM105.555 57.4529C105.555 56.7524 105.73 56.1366 106.08 55.6056C106.431 55.0746 106.922 54.6622 107.555 54.3684C108.199 54.0747 108.939 53.9278 109.775 53.9278C110.555 53.9278 111.232 54.069 111.809 54.3515C112.396 54.6226 112.854 55.0124 113.181 55.5209C113.52 56.0293 113.713 56.6394 113.758 57.3512H112.08C112.035 56.7411 111.809 56.2666 111.402 55.9276C110.995 55.5887 110.447 55.4192 109.758 55.4192C108.99 55.4192 108.374 55.6 107.911 55.9615C107.447 56.3118 107.216 56.792 107.216 57.4021C107.216 57.8992 107.357 58.3003 107.64 58.6054C107.922 58.8991 108.351 59.1138 108.928 59.2494L110.944 59.7239C111.95 59.9499 112.701 60.3397 113.198 60.8933C113.707 61.4357 113.961 62.1362 113.961 62.9949C113.961 63.7293 113.78 64.3676 113.419 64.91C113.069 65.4523 112.566 65.8703 111.91 66.1641C111.266 66.4579 110.509 66.6047 109.639 66.6047C108.815 66.6047 108.086 66.4692 107.453 66.198C106.832 65.9155 106.34 65.5201 105.979 65.0116C105.628 64.4919 105.431 63.8874 105.385 63.1982H107.08C107.092 63.7858 107.329 64.2546 107.792 64.6049C108.255 64.9439 108.871 65.1133 109.639 65.1133C110.453 65.1133 111.097 64.9326 111.571 64.571C112.057 64.2094 112.3 63.7293 112.3 63.1304C112.3 62.6446 112.165 62.2492 111.893 61.9441C111.622 61.639 111.193 61.4187 110.605 61.2831L108.589 60.8255C107.594 60.5996 106.837 60.2041 106.318 59.6392C105.809 59.063 105.555 58.3342 105.555 57.4529ZM114.557 58.1139H119.404V59.4528H114.557V58.1139ZM117.777 66.4014H116.184V55.5209H117.777V66.4014ZM119.87 62.2492C119.87 61.4018 120.056 60.6504 120.429 59.9951C120.802 59.3398 121.31 58.8257 121.954 58.4528C122.609 58.08 123.355 57.8936 124.191 57.8936C125.027 57.8936 125.767 58.08 126.411 58.4528C127.055 58.8257 127.564 59.3398 127.937 59.9951C128.31 60.6504 128.496 61.4018 128.496 62.2492C128.496 63.0965 128.31 63.8479 127.937 64.5032C127.564 65.1585 127.055 65.6726 126.411 66.0455C125.767 66.4183 125.027 66.6047 124.191 66.6047C123.355 66.6047 122.609 66.4183 121.954 66.0455C121.31 65.6726 120.802 65.1585 120.429 64.5032C120.056 63.8479 119.87 63.0965 119.87 62.2492ZM121.48 62.2492C121.48 62.8254 121.593 63.3338 121.819 63.7745C122.056 64.2151 122.378 64.5597 122.785 64.8083C123.191 65.0568 123.66 65.1811 124.191 65.1811C124.722 65.1811 125.191 65.0568 125.598 64.8083C126.005 64.5597 126.321 64.2151 126.547 63.7745C126.784 63.3338 126.903 62.8254 126.903 62.2492C126.903 61.6616 126.784 61.1532 126.547 60.7238C126.321 60.2832 126.005 59.9386 125.598 59.69C125.191 59.4415 124.722 59.3172 124.191 59.3172C123.66 59.3172 123.191 59.4415 122.785 59.69C122.378 59.9386 122.056 60.2832 121.819 60.7238C121.593 61.1532 121.48 61.6616 121.48 62.2492ZM134.666 58.0461V59.5036H133.954C133.197 59.5036 132.598 59.7239 132.158 60.1646C131.728 60.5939 131.514 61.2097 131.514 62.0119V66.4014H129.921V58.1308H131.412L131.547 59.7917H131.395C131.508 59.2494 131.779 58.8087 132.208 58.4698C132.638 58.1195 133.174 57.9444 133.819 57.9444C133.965 57.9444 134.101 57.9557 134.225 57.9783C134.361 57.9896 134.508 58.0122 134.666 58.0461ZM139.099 66.6047C138.297 66.6047 137.585 66.424 136.964 66.0624C136.342 65.6896 135.857 65.1811 135.506 64.5371C135.156 63.8818 134.981 63.1248 134.981 62.2661C134.981 61.3961 135.15 60.6335 135.489 59.9781C135.84 59.3228 136.314 58.8087 136.913 58.4359C137.523 58.063 138.229 57.8766 139.031 57.8766C139.822 57.8766 140.506 58.0461 141.082 58.385C141.67 58.724 142.122 59.1985 142.438 59.8087C142.766 60.4188 142.929 61.1362 142.929 61.961V62.5542L135.828 62.5712L135.862 61.5034H141.336C141.336 60.8142 141.127 60.2606 140.709 59.8426C140.291 59.4245 139.732 59.2155 139.031 59.2155C138.5 59.2155 138.043 59.3341 137.659 59.5714C137.286 59.7974 136.998 60.1363 136.794 60.5883C136.602 61.0289 136.506 61.5599 136.506 62.1814C136.506 63.1756 136.732 63.9439 137.184 64.4863C137.636 65.0173 138.286 65.2828 139.133 65.2828C139.755 65.2828 140.263 65.1585 140.658 64.91C141.054 64.6614 141.319 64.2998 141.455 63.8253H142.946C142.743 64.7066 142.308 65.3901 141.641 65.876C140.975 66.3618 140.127 66.6047 139.099 66.6047Z" fill="black"/>
<rect x="44.732" y="93.7206" width="181.342" height="39.8274" rx="9.74499" fill="url(#paint1_linear_2550_24952)"/>
<rect x="44.732" y="93.7206" width="181.342" height="39.8274" rx="9.74499" stroke="url(#paint2_linear_2550_24952)" stroke-width="0.847391"/>
</g>
</g>
<defs>
<filter id="filter0_d_2550_24952" x="7.0232" y="5.16831" width="278.792" height="806.716" filterUnits="userSpaceOnUse" color-interpolation-filters="sRGB">
<feFlood flood-opacity="0" result="BackgroundImageFix"/>
<feColorMatrix in="SourceAlpha" type="matrix" values="0 0 0 0 0 0 0 0 0 0 0 0 0 0 0 0 0 0 127 0" result="hardAlpha"/>
<feOffset dx="11.0161" dy="7.62652"/>
<feGaussianBlur stdDeviation="10.5924"/>
<feComposite in2="hardAlpha" operator="out"/>
<feColorMatrix type="matrix" values="0 0 0 0 0 0 0 0 0 0 0 0 0 0 0 0 0 0 0.05 0"/>
<feBlend mode="normal" in2="BackgroundImageFix" result="effect1_dropShadow_2550_24952"/>
<feBlend mode="normal" in="SourceGraphic" in2="effect1_dropShadow_2550_24952" result="shape"/>
</filter>
<linearGradient id="paint0_linear_2550_24952" x1="50.3555" y1="50.2881" x2="71.592" y2="71.5186" gradientUnits="userSpaceOnUse">
<stop stop-color="#A755FF"/>
<stop offset="1" stop-color="#6800D7"/>
</linearGradient>
<linearGradient id="paint1_linear_2550_24952" x1="84.9374" y1="99.9649" x2="98.4891" y2="160.648" gradientUnits="userSpaceOnUse">
<stop stop-color="#A755FF"/>
<stop offset="1" stop-color="#6800D7"/>
</linearGradient>
<linearGradient id="paint2_linear_2550_24952" x1="84.9374" y1="99.9649" x2="98.4891" y2="160.648" gradientUnits="userSpaceOnUse">
<stop stop-color="#A755FF"/>
<stop offset="1" stop-color="#6800D7"/>
</linearGradient>
<clipPath id="clip0_2550_24952">
<rect x="0.041748" y="0.393555" width="122.417" height="95.2129" rx="6" fill="white"/>
</clipPath>
</defs>
</svg>
