<svg width="72" height="72" viewBox="0 0 72 72" fill="none" xmlns="http://www.w3.org/2000/svg">
<g id="vuesax/bulk/calendar-remove">
<g id="calendar-remove">
<path id="Vector" d="M48.0005 4.25C48.9542 4.25015 49.7505 5.04623 49.7505 6V11.1357L50.2046 11.1777C54.1611 11.5442 57.0453 12.9001 59.0142 14.9902C60.863 16.953 61.9477 19.6086 62.3179 22.8213L62.3823 23.4717L62.3833 23.4834C62.4387 24.0013 61.9803 24.5195 61.3804 24.5195H10.6206C10.0584 24.5195 9.58411 24.0355 9.61865 23.4717C9.91203 19.9659 11.0146 17.0839 12.9868 14.9902C14.9558 12.9001 17.8397 11.5441 21.7964 11.1777L22.2505 11.1357V6C22.2505 5.04614 23.0466 4.25 24.0005 4.25C24.9542 4.25015 25.7505 5.04623 25.7505 6V11H46.2505V6C46.2505 5.04614 47.0466 4.25 48.0005 4.25Z" fill="#B6B3B9" stroke="#B6B3B9"/>
<path id="Vector_2" opacity="0.4" d="M12 29.9902H59.9912L60.2471 30.0078C61.5101 30.1581 62.5 31.2342 62.5 32.5205V37.7402C62.5 39.2708 61.148 40.4351 59.6621 40.1875L59.583 40.6611L59.6621 40.1865L59.6504 40.1855L59.0039 40.1006C58.3503 40.023 57.6772 39.9707 57 39.9707C47.6339 39.9707 40 47.6046 40 56.9707C40.0001 58.258 40.4343 59.9446 40.9229 61.5059L41.1348 62.166L41.1367 62.1709C41.6864 63.7956 40.4884 65.4707 38.7598 65.4707H24C18.8453 65.4707 15.2455 63.9999 12.9287 61.5049C10.6059 59.0033 9.50008 55.3937 9.5 50.9707V32.4902C9.5 31.1164 10.6261 29.9902 12 29.9902Z" fill="#BFBFBF" stroke="#B6B3B9"/>
<path id="Vector_3" d="M57 45C50.37 45 45 50.37 45 57C45 63.63 50.37 69 57 69C63.63 69 69 63.63 69 57C69 50.37 63.63 45 57 45ZM61.8 61.92C61.35 62.37 60.78 62.58 60.21 62.58C59.64 62.58 59.07 62.37 58.62 61.92L57.03 60.33L55.38 61.98C54.93 62.43 54.36 62.64 53.79 62.64C53.22 62.64 52.65 62.43 52.2 61.98C51.33 61.11 51.33 59.67 52.2 58.8L53.85 57.15L52.26 55.56C51.39 54.69 51.39 53.25 52.26 52.38C53.13 51.51 54.57 51.51 55.44 52.38L57.03 53.97L58.53 52.47C59.4 51.6 60.84 51.6 61.71 52.47C62.58 53.34 62.58 54.78 61.71 55.65L60.21 57.15L61.8 58.74C62.67 59.64 62.67 61.05 61.8 61.92Z" fill="#BFBFBF"/>
<path id="Vector_4" d="M25.5 44.9997C24.72 44.9997 23.94 44.6697 23.37 44.1297C22.83 43.5597 22.5 42.7797 22.5 41.9997C22.5 41.2197 22.83 40.4398 23.37 39.8698C24.06 39.1798 25.11 38.8497 26.1 39.0597C26.28 39.0897 26.46 39.1497 26.64 39.2397C26.82 39.2997 27 39.3898 27.18 39.5098C27.33 39.6298 27.48 39.7498 27.63 39.8698C28.17 40.4398 28.5 41.2197 28.5 41.9997C28.5 42.7797 28.17 43.5597 27.63 44.1297C27.48 44.2497 27.33 44.3697 27.18 44.4897C27 44.6097 26.82 44.6998 26.64 44.7598C26.46 44.8498 26.28 44.9098 26.1 44.9398C25.89 44.9698 25.68 44.9997 25.5 44.9997Z" fill="#BFBFBF"/>
<path id="Vector_5" d="M36 44.9996C35.22 44.9996 34.44 44.6696 33.87 44.1296C33.33 43.5596 33 42.7796 33 41.9996C33 41.2196 33.33 40.4396 33.87 39.8696C35.01 38.7596 37.02 38.7596 38.13 39.8696C38.67 40.4396 39 41.2196 39 41.9996C39 42.7796 38.67 43.5596 38.13 44.1296C37.56 44.6696 36.78 44.9996 36 44.9996Z" fill="#BFBFBF"/>
<path id="Vector_6" d="M25.5 55.4996C24.72 55.4996 23.94 55.1696 23.37 54.6296C22.83 54.0596 22.5 53.2796 22.5 52.4996C22.5 51.7196 22.83 50.9396 23.37 50.3696C23.67 50.0996 23.97 49.8896 24.36 49.7396C25.47 49.2596 26.79 49.5296 27.63 50.3696C28.17 50.9396 28.5 51.7196 28.5 52.4996C28.5 53.2796 28.17 54.0596 27.63 54.6296C27.06 55.1696 26.28 55.4996 25.5 55.4996Z" fill="#BFBFBF"/>
</g>
</g>
</svg>
