<svg width="101" height="101" viewBox="0 0 101 101" fill="none" xmlns="http://www.w3.org/2000/svg">
<g id="cloud 1" clip-path="url(#clip0_465_9471)">
<path id="Vector" d="M100.5 53.0617C100.494 58.0613 98.5058 62.8546 94.9705 66.3898C91.4352 69.9251 86.642 71.9137 81.6424 71.9193H75.6094C74.7806 71.9193 73.9857 71.5901 73.3997 71.004C72.8136 70.418 72.4844 69.6231 72.4844 68.7943C72.4844 67.9655 72.8136 67.1707 73.3997 66.5846C73.9857 65.9986 74.7806 65.6693 75.6094 65.6693H81.6424C84.985 65.6656 88.1896 64.336 90.5531 61.9725C92.9167 59.6089 94.2462 56.4043 94.25 53.0617C94.25 49.8018 93.0109 46.8131 90.7609 44.6455C87.924 41.9127 83.7379 40.568 78.6537 40.7588C78.2393 40.7742 77.8259 40.7071 77.4377 40.5611C77.0495 40.4152 76.6942 40.1935 76.3925 39.9088C76.0909 39.6242 75.8489 39.2824 75.6807 38.9033C75.5126 38.5242 75.4215 38.1154 75.4129 37.7008C75.1514 25.1246 64.701 14.893 52.1174 14.893C45.8674 14.893 40.0951 17.2808 35.8611 21.6166C31.2227 26.3664 28.7676 33.1721 28.9486 40.7795C28.9684 41.608 28.6581 42.4105 28.0862 43.0104C27.5143 43.6102 26.7275 43.9583 25.8989 43.978C25.0704 43.9978 24.2679 43.6875 23.668 43.1156C23.0682 42.5437 22.7201 41.7569 22.7004 40.9283C22.6201 37.9246 22.9082 34.9224 23.5582 31.9889C19.0918 31.9931 14.8101 33.7715 11.6549 36.9327C8.49977 40.0939 6.72961 44.379 6.73389 48.8454C6.73816 53.3118 8.51651 57.5935 11.6777 60.7487C14.8389 63.9038 19.1241 65.674 23.5904 65.6697C24.4192 65.6697 25.2141 65.999 25.8001 66.585C26.3862 67.1711 26.7154 67.9659 26.7154 68.7947C26.7154 69.6235 26.3862 70.4184 25.8001 71.0044C25.2141 71.5905 24.4192 71.9197 23.5904 71.9197C17.4665 71.9197 11.5933 69.487 7.26303 65.1567C2.93273 60.8264 0.5 54.9532 0.5 48.8293C0.5 42.7053 2.93273 36.8322 7.26303 32.5019C11.5933 28.1716 17.4665 25.7389 23.5904 25.7389C24.2592 25.7389 24.9285 25.768 25.5947 25.8254C27.0041 22.6467 28.966 19.7432 31.3895 17.2498C36.8094 11.6994 44.1707 8.64276 52.1174 8.64276C59.3245 8.6438 66.2829 11.2779 71.684 16.0496C77.0852 20.8213 80.557 27.4019 81.4465 34.5539C86.9119 34.9174 91.6832 36.8557 95.0971 40.1445C98.5812 43.501 100.5 48.0883 100.5 53.0617ZM46.3973 80.3908C45.8079 79.9132 45.0649 79.6664 44.3069 79.6965C43.5489 79.7266 42.8277 80.0316 42.2781 80.5545V59.4217C42.2781 58.5929 41.9489 57.798 41.3628 57.212C40.7768 56.6259 39.9819 56.2967 39.1531 56.2967C38.3243 56.2967 37.5295 56.6259 36.9434 57.212C36.3574 57.798 36.0281 58.5929 36.0281 59.4217V81.2219L35.5725 80.7191C35.0149 80.1088 34.2382 79.7443 33.4124 79.7053C32.5867 79.6664 31.7791 79.9562 31.1666 80.5114C30.5541 81.0666 30.1865 81.8418 30.1443 82.6674C30.1022 83.493 30.3888 84.3017 30.9416 84.9164L36.8377 91.4215C37.1306 91.7447 37.488 92.003 37.8868 92.1797C38.2855 92.3565 38.7169 92.4478 39.1531 92.4478C39.1816 92.4478 39.2104 92.4478 39.2391 92.4467C39.6895 92.4343 40.132 92.3246 40.5361 92.1251C40.9402 91.9257 41.2964 91.6412 41.5803 91.2912L46.8559 84.7861C47.3779 84.1424 47.6228 83.3178 47.5368 82.4935C47.4508 81.6692 47.0409 80.9129 46.3973 80.3908ZM60.2559 57.0219C59.9532 56.688 59.5819 56.4234 59.1674 56.2465C58.753 56.0695 58.3051 55.9843 57.8546 55.9967C57.4041 56.0091 56.9616 56.1188 56.5575 56.3182C56.1534 56.5176 55.7971 56.8021 55.5133 57.1521L50.2377 63.6574C49.7359 64.2736 49.4878 65.0578 49.5438 65.8504C49.5998 66.6431 49.9558 67.3846 50.5393 67.924C51.1227 68.4635 51.8898 68.7603 52.6845 68.7541C53.4791 68.7479 54.2414 68.4391 54.8164 67.8906V89.0217C54.8164 89.8505 55.1456 90.6453 55.7317 91.2314C56.3177 91.8174 57.1126 92.1467 57.9414 92.1467C58.7702 92.1467 59.5651 91.8174 60.1511 91.2314C60.7372 90.6453 61.0664 89.8505 61.0664 89.0217V67.2217L61.5223 67.7244C62.0798 68.3347 62.8565 68.6993 63.6823 68.7382C64.508 68.7771 65.3156 68.4873 65.9281 67.9321C66.5406 67.377 66.9082 66.6017 66.9504 65.7761C66.9926 64.9505 66.7059 64.1418 66.1531 63.5271L60.2559 57.0219Z" fill="url(#paint0_linear_465_9471)"/>
</g>
<defs>
<linearGradient id="paint0_linear_465_9471" x1="22.8005" y1="22.3813" x2="87.4252" y2="99.4726" gradientUnits="userSpaceOnUse">
<stop stop-color="#A755FF"/>
<stop offset="1" stop-color="#6800D7"/>
</linearGradient>
<clipPath id="clip0_465_9471">
<rect width="100" height="100" fill="white" transform="translate(0.5 0.545105)"/>
</clipPath>
</defs>
</svg>
