<svg xmlns="http://www.w3.org/2000/svg" width="72" height="61" viewBox="0 0 72 61" fill="none">
<path d="M72 32.3571C71.9959 35.9568 70.5642 39.4079 68.0188 41.9533C65.4734 44.4987 62.0222 45.9305 58.4225 45.9346H54.0788C53.482 45.9346 52.9097 45.6975 52.4878 45.2755C52.0658 44.8536 51.8288 44.2813 51.8288 43.6846C51.8288 43.0878 52.0658 42.5155 52.4878 42.0936C52.9097 41.6716 53.482 41.4346 54.0788 41.4346H58.4225C60.8292 41.4318 63.1365 40.4746 64.8383 38.7728C66.54 37.0711 67.4973 34.7637 67.5 32.3571C67.5 30.0099 66.6079 27.8581 64.9879 26.2974C62.9453 24.3298 59.9313 23.3616 56.2707 23.499C55.9723 23.5101 55.6746 23.4617 55.3951 23.3567C55.1156 23.2516 54.8598 23.0919 54.6426 22.887C54.4255 22.6821 54.2512 22.436 54.1301 22.163C54.009 21.8901 53.9435 21.5957 53.9373 21.2972C53.749 12.2424 46.2247 4.87557 37.1645 4.87557C32.6645 4.87557 28.5085 6.59485 25.46 9.71658C22.1203 13.1364 20.3527 18.0365 20.483 23.5139C20.4972 24.1104 20.2739 24.6882 19.8621 25.1201C19.4503 25.552 18.8838 25.8026 18.2872 25.8168C17.6907 25.831 17.1129 25.6077 16.681 25.1959C16.2491 24.7841 15.9985 24.2176 15.9843 23.621C15.9265 21.4584 16.1339 19.2968 16.6019 17.1846C13.3861 17.1877 10.3033 18.4681 8.03156 20.7442C5.75983 23.0203 4.48532 26.1055 4.4884 29.3213C4.49148 32.5371 5.77189 35.62 8.04797 37.8917C10.324 40.1634 13.4093 41.4379 16.6251 41.4348C17.2218 41.4348 17.7941 41.6719 18.2161 42.0938C18.6381 42.5158 18.8751 43.0881 18.8751 43.6848C18.8751 44.2816 18.6381 44.8539 18.2161 45.2758C17.7941 45.6978 17.2218 45.9348 16.6251 45.9348C12.2159 45.9348 7.9872 44.1833 4.86938 41.0655C1.75157 37.9476 0 33.719 0 29.3097C0 24.9005 1.75157 20.6718 4.86938 17.554C7.9872 14.4362 12.2159 12.6846 16.6251 12.6846C17.1066 12.6846 17.5885 12.7056 18.0682 12.7469C19.0829 10.4583 20.4955 8.36776 22.2404 6.57249C26.1428 2.57621 31.4429 0.375427 37.1645 0.375427C42.3536 0.376178 47.3637 2.2727 51.2525 5.70834C55.1413 9.14398 57.641 13.882 58.2815 19.0314C62.2166 19.2931 65.6519 20.6887 68.1099 23.0567C70.6185 25.4733 72 28.7762 72 32.3571ZM33.046 52.034C32.6217 51.6901 32.0867 51.5125 31.5409 51.5341C30.9952 51.5558 30.476 51.7754 30.0803 52.1519V36.9362C30.0803 36.3395 29.8432 35.7672 29.4212 35.3452C28.9993 34.9233 28.427 34.6862 27.8303 34.6862C27.2335 34.6862 26.6612 34.9233 26.2393 35.3452C25.8173 35.7672 25.5803 36.3395 25.5803 36.9362V52.6324L25.2522 52.2704C24.8507 51.831 24.2915 51.5685 23.697 51.5405C23.1024 51.5124 22.521 51.7211 22.08 52.1209C21.639 52.5206 21.3743 53.0788 21.3439 53.6732C21.3136 54.2676 21.52 54.8499 21.918 55.2924L26.1631 59.9761C26.3741 60.2088 26.6314 60.3948 26.9185 60.5221C27.2056 60.6493 27.5162 60.7151 27.8303 60.7151C27.8508 60.7151 27.8715 60.7151 27.8921 60.7142C28.2165 60.7053 28.535 60.6263 28.826 60.4827C29.117 60.3391 29.3734 60.1343 29.5778 59.8823L33.3762 55.1986C33.7521 54.7352 33.9284 54.1414 33.8665 53.548C33.8046 52.9545 33.5094 52.4099 33.046 52.034ZM43.0242 35.2084C42.8063 34.968 42.539 34.7775 42.2406 34.6501C41.9421 34.5227 41.6197 34.4614 41.2953 34.4703C40.971 34.4792 40.6524 34.5581 40.3614 34.7017C40.0704 34.8453 39.8139 35.0502 39.6096 35.3022L35.8111 39.986C35.4498 40.4296 35.2712 40.9942 35.3115 41.5649C35.3519 42.1357 35.6082 42.6696 36.0283 43.058C36.4484 43.4464 37.0007 43.6601 37.5728 43.6556C38.1449 43.6511 38.6938 43.4288 39.1078 43.0339V58.2482C39.1078 58.845 39.3449 59.4173 39.7668 59.8392C40.1888 60.2612 40.7611 60.4982 41.3578 60.4982C41.9546 60.4982 42.5268 60.2612 42.9488 59.8392C43.3708 59.4173 43.6078 58.845 43.6078 58.2482V42.5522L43.936 42.9142C44.3375 43.3537 44.8967 43.6161 45.4912 43.6441C46.0858 43.6722 46.6672 43.4635 47.1082 43.0638C47.5492 42.664 47.8139 42.1059 47.8443 41.5114C47.8746 40.917 47.6682 40.3348 47.2703 39.8922L43.0242 35.2084Z" fill="url(#paint0_linear_483_10679)"/>
<defs>
<linearGradient id="paint0_linear_483_10679" x1="16.0563" y1="10.2672" x2="62.5862" y2="65.7729" gradientUnits="userSpaceOnUse">
<stop stop-color="#A755FF"/>
<stop offset="1" stop-color="#6800D7"/>
</linearGradient>
</defs>
</svg>