<svg xmlns="http://www.w3.org/2000/svg" xmlns:xlink="http://www.w3.org/1999/xlink" width="64" height="64" viewBox="0 0 64 64" id="credit-card">
  <defs>
    <path id="path-1" d="M.06 64V.04H64V64z"></path>
  </defs>
  <g id="Page-1" fill="none" fill-rule="evenodd" stroke="none" stroke-width="1">
    <g id="creditcard">
      <g id="Group-3">
        <mask id="mask-2" fill="#fff">
          <use xlink:href="#path-1"></use>
        </mask>
        <path id="Fill-1" fill="#76ABC4" d="M64 32c0 17.673-14.327 32-32 32C14.327 64 0 49.673 0 32 0 14.327 14.327 0 32 0c17.673 0 32 14.327 32 32" mask="url(#mask-2)"></path>
      </g>
      <path id="Fill-4" fill="#638DA0" d="M48 49H16a4 4 0 0 1-4-4V25a4 4 0 0 1 4-4h32a4 4 0 0 1 4 4v20a4 4 0 0 1-4 4"></path>
      <path id="Fill-5" fill="#FFFFFE" d="M52 43a4 4 0 0 1-4 4H16a4 4 0 0 1-4-4V23a4 4 0 0 1 4-4h32a4 4 0 0 1 4 4v20"></path>
      <path id="Fill-6" fill="#4C5665" d="M12 31h40v-6H12z"></path>
      <path id="Fill-7" fill="#D5915B" d="M40 41a2 2 0 1 0-3.999-.001A2 2 0 0 0 40 41"></path>
      <path id="Fill-8" fill="#D5915B" d="M48 41a2 2 0 1 0-3.999-.001A2 2 0 0 0 48 41"></path>
      <path id="Fill-9" fill="#D5915B" d="M32 41a2 2 0 1 0-3.999-.001A2 2 0 0 0 32 41"></path>
    </g>
  </g>
</svg>
