<svg width="36" height="36" viewBox="0 0 36 36" fill="none" xmlns="http://www.w3.org/2000/svg">
<path opacity="0.4" d="M30.06 10.2295L21.42 4.18454C19.065 2.53454 15.45 2.62454 13.185 4.37954L5.66999 10.2445C4.16999 11.4145 2.98499 13.8145 2.98499 15.7045V26.0545C2.98499 29.8795 6.08998 32.9995 9.91498 32.9995H26.085C29.91 32.9995 33.015 29.8945 33.015 26.0695V15.8995C33.015 13.8745 31.71 11.3845 30.06 10.2295Z" fill="url(#paint0_linear_2630_219)"/>
<path d="M25.245 16.9048C25.14 16.6498 24.93 16.4398 24.675 16.3348C24.54 16.2748 24.405 16.2598 24.27 16.2598H21.48C20.895 16.2598 20.43 16.7248 20.43 17.3098C20.43 17.8948 20.895 18.3598 21.48 18.3598H21.75L18.585 21.5248L17.055 19.2448C16.875 18.9898 16.605 18.8098 16.29 18.7798C15.96 18.7498 15.675 18.8548 15.45 19.0798L10.98 23.5498C10.575 23.9548 10.575 24.6148 10.98 25.0348C11.19 25.2448 11.445 25.3348 11.715 25.3348C11.985 25.3348 12.255 25.2298 12.45 25.0348L16.02 21.4648L17.55 23.7448C17.73 23.9998 18 24.1798 18.315 24.2098C18.645 24.2398 18.93 24.1348 19.155 23.9098L23.235 19.8298V20.0998C23.235 20.6848 23.7 21.1498 24.285 21.1498C24.87 21.1498 25.335 20.6848 25.335 20.0998V17.3098C25.32 17.1598 25.305 17.0248 25.245 16.9048Z" fill="url(#paint1_linear_2630_219)"/>
<defs>
<linearGradient id="paint0_linear_2630_219" x1="9.68182" y1="7.92041" x2="33.1739" y2="31.432" gradientUnits="userSpaceOnUse">
<stop stop-color="#A755FF"/>
<stop offset="1" stop-color="#6800D7"/>
</linearGradient>
<linearGradient id="paint1_linear_2630_219" x1="13.9452" y1="17.7475" x2="20.3077" y2="28.0218" gradientUnits="userSpaceOnUse">
<stop stop-color="#A755FF"/>
<stop offset="1" stop-color="#6800D7"/>
</linearGradient>
</defs>
</svg>
