<svg width="64" height="64" viewBox="0 0 64 64" fill="none" xmlns="http://www.w3.org/2000/svg">
<path d="M32 26C31.7333 26 31.4933 25.9467 31.2267 25.84C30.48 25.5467 30 24.8 30 24V5.33337C30 4.24004 30.9067 3.33337 32 3.33337C33.0933 3.33337 34 4.24004 34 5.33337V19.1734L35.92 17.2534C36.6933 16.48 37.9733 16.48 38.7467 17.2534C39.52 18.0267 39.52 19.3067 38.7467 20.08L33.4133 25.4134C33.04 25.7867 32.5333 26 32 26Z" fill="url(#paint0_linear_652_13896)"/>
<path d="M32 26C31.4933 26 30.9867 25.8133 30.5867 25.4133L25.2533 20.08C24.48 19.3067 24.48 18.0267 25.2533 17.2533C26.0267 16.48 27.3067 16.48 28.08 17.2533L33.4133 22.5867C34.1867 23.36 34.1867 24.64 33.4133 25.4133C33.0133 25.8133 32.5067 26 32 26Z" fill="url(#paint1_linear_652_13896)"/>
<path d="M36.6934 47.3333H27.28C24.48 47.3333 21.9734 45.7866 20.72 43.28L17.6 37.04C17.4934 36.8 17.2534 36.6666 17.0134 36.6666H5.28003C4.1867 36.6666 3.28003 35.76 3.28003 34.6666C3.28003 33.5733 4.1867 32.6666 5.28003 32.6666H17.04C18.8267 32.6666 20.4267 33.6533 21.2267 35.2533L24.3467 41.4933C24.9067 42.64 26.0534 43.3333 27.3334 43.3333H36.7467C38.0267 43.3333 39.1734 42.64 39.7334 41.4933L42.8534 35.2533C43.6534 33.6533 45.2534 32.6666 47.04 32.6666H58.6667C59.76 32.6666 60.6667 33.5733 60.6667 34.6666C60.6667 35.76 59.76 36.6666 58.6667 36.6666H47.04C46.7734 36.6666 46.56 36.8 46.4534 37.04L43.3334 43.28C42 45.7866 39.4934 47.3333 36.6934 47.3333Z" fill="url(#paint2_linear_652_13896)"/>
<path d="M39.9999 60.6667H23.9999C9.51992 60.6667 3.33325 54.48 3.33325 40V29.3333C3.33325 16.8267 7.97325 10.56 18.3733 9.04001C19.4933 8.88001 20.4799 9.62668 20.6399 10.72C20.7999 11.8133 20.0533 12.8267 18.9599 12.9867C10.5866 14.2133 7.33325 18.8 7.33325 29.3333V40C7.33325 52.2933 11.7066 56.6667 23.9999 56.6667H39.9999C52.2933 56.6667 56.6666 52.2933 56.6666 40V29.3333C56.6666 18.8 53.4133 14.2133 45.0399 12.9867C43.9466 12.8267 43.1999 11.8133 43.3599 10.72C43.5199 9.62668 44.5333 8.88001 45.6266 9.04001C56.0266 10.56 60.6666 16.8267 60.6666 29.3333V40C60.6666 54.48 54.4799 60.6667 39.9999 60.6667Z" fill="url(#paint3_linear_652_13896)"/>
<defs>
<linearGradient id="paint0_linear_652_13896" x1="32.0799" y1="7.04922" x2="44.5707" y2="12.1874" gradientUnits="userSpaceOnUse">
<stop stop-color="#A755FF"/>
<stop offset="1" stop-color="#6800D7"/>
</linearGradient>
<linearGradient id="paint1_linear_652_13896" x1="26.7517" y1="18.2023" x2="34.056" y2="25.4993" gradientUnits="userSpaceOnUse">
<stop stop-color="#A755FF"/>
<stop offset="1" stop-color="#6800D7"/>
</linearGradient>
<linearGradient id="paint2_linear_652_13896" x1="16.0775" y1="35.071" x2="21.5902" y2="56.6344" gradientUnits="userSpaceOnUse">
<stop stop-color="#A755FF"/>
<stop offset="1" stop-color="#6800D7"/>
</linearGradient>
<linearGradient id="paint3_linear_652_13896" x1="16.1189" y1="17.4854" x2="56.3493" y2="62.1315" gradientUnits="userSpaceOnUse">
<stop stop-color="#A755FF"/>
<stop offset="1" stop-color="#6800D7"/>
</linearGradient>
</defs>
</svg>
