<svg width="100" height="101" fill="none" xmlns="http://www.w3.org/2000/svg">
<path d="M50 40.6702C49.5833 40.6702 49.2083 40.5869 48.7917 40.4202C47.625 39.9619 46.875 38.7952 46.875 37.5452V8.37854C46.875 6.67021 48.2917 5.25354 50 5.25354C51.7083 5.25354 53.125 6.67021 53.125 8.37854V30.0035L56.125 27.0035C57.3333 25.7952 59.3333 25.7952 60.5417 27.0035C61.75 28.2119 61.75 30.2119 60.5417 31.4202L52.2083 39.7535C51.625 40.3369 50.8333 40.6702 50 40.6702Z" fill="url(#paint0_linear_2001_4894)"/>
<path d="M49.9999 40.6702C49.2083 40.6702 48.4166 40.3785 47.7916 39.7535L39.4583 31.4202C38.2499 30.2119 38.2499 28.2119 39.4583 27.0035C40.6666 25.7952 42.6666 25.7952 43.8749 27.0035L52.2082 35.3369C53.4166 36.5452 53.4166 38.5452 52.2082 39.7535C51.5832 40.3785 50.7916 40.6702 49.9999 40.6702Z" fill="url(#paint1_linear_2001_4894)"/>
<path d="M57.3333 74.0035H42.625C38.25 74.0035 34.3333 71.5868 32.375 67.6701L27.5 57.9201C27.3333 57.5451 26.9583 57.3368 26.5833 57.3368H8.25C6.54167 57.3368 5.125 55.9201 5.125 54.2118C5.125 52.5035 6.54167 51.0868 8.25 51.0868H26.625C29.4167 51.0868 31.9167 52.6285 33.1667 55.1285L38.0417 64.8785C38.9167 66.6701 40.7083 67.7535 42.7083 67.7535H57.4167C59.4167 67.7535 61.2083 66.6701 62.0833 64.8785L66.9583 55.1285C68.2083 52.6285 70.7083 51.0868 73.5 51.0868H91.6667C93.375 51.0868 94.7917 52.5035 94.7917 54.2118C94.7917 55.9201 93.375 57.3368 91.6667 57.3368H73.5C73.0833 57.3368 72.75 57.5451 72.5833 57.9201L67.7083 67.6701C65.625 71.5868 61.7083 74.0035 57.3333 74.0035Z" fill="url(#paint2_linear_2001_4894)"/>
<path d="M62.4999 94.8369H37.4999C14.8749 94.8369 5.20825 85.1702 5.20825 62.5452V45.8785C5.20825 26.3369 12.4583 16.5452 28.7083 14.1702C30.4583 13.9202 31.9999 15.0869 32.2499 16.7952C32.4999 18.5035 31.3333 20.0869 29.6249 20.3369C16.5416 22.2535 11.4583 29.4202 11.4583 45.8785V62.5452C11.4583 81.7535 18.2916 88.5869 37.4999 88.5869H62.4999C81.7082 88.5869 88.5416 81.7535 88.5416 62.5452V45.8785C88.5416 29.4202 83.4582 22.2535 70.3749 20.3369C68.6666 20.0869 67.4999 18.5035 67.7499 16.7952C67.9999 15.0869 69.5833 13.9202 71.2916 14.1702C87.5416 16.5452 94.7916 26.3369 94.7916 45.8785V62.5452C94.7916 85.1702 85.1249 94.8369 62.4999 94.8369Z" fill="url(#paint3_linear_2001_4894)"/>
<defs>
<linearGradient id="paint0_linear_2001_4894" x1="50.1248" y1="11.0596" x2="69.6417" y2="19.0879" gradientUnits="userSpaceOnUse">
<stop stop-color="#A755FF"/>
<stop offset="1" stop-color="#6800D7"/>
</linearGradient>
<linearGradient id="paint1_linear_2001_4894" x1="41.7995" y1="28.4863" x2="53.2124" y2="39.8878" gradientUnits="userSpaceOnUse">
<stop stop-color="#A755FF"/>
<stop offset="1" stop-color="#6800D7"/>
</linearGradient>
<linearGradient id="paint2_linear_2001_4894" x1="25.1211" y1="54.8436" x2="33.7346" y2="88.5364" gradientUnits="userSpaceOnUse">
<stop stop-color="#A755FF"/>
<stop offset="1" stop-color="#6800D7"/>
</linearGradient>
<linearGradient id="paint3_linear_2001_4894" x1="25.1858" y1="27.366" x2="88.0458" y2="97.1256" gradientUnits="userSpaceOnUse">
<stop stop-color="#A755FF"/>
<stop offset="1" stop-color="#6800D7"/>
</linearGradient>
</defs>
</svg>
