<svg width="16" height="16" viewBox="0 0 16 16" fill="none" xmlns="http://www.w3.org/2000/svg">
<path opacity="0.4" d="M5.01172 2.5H10.3184C11.3688 2.5 12.1502 2.81137 12.667 3.32812C13.1836 3.84474 13.4952 4.62564 13.4922 5.67871V10.9863C13.4922 12.0404 13.1798 12.8212 12.6631 13.3379C12.1465 13.8545 11.3663 14.1669 10.3125 14.167H5.01172C3.96148 14.1669 3.18076 13.8546 2.66309 13.3369C2.14558 12.8193 1.83212 12.0372 1.83203 10.9805V5.67969C1.83209 4.62647 2.14548 3.84605 2.66309 3.3291C3.18083 2.81204 3.96147 2.50006 5.01172 2.5Z" fill="url(#paint0_linear_4075_19076)" stroke="url(#paint1_linear_4075_19076)"/>
<path d="M12.2295 1.57664C12.5896 1.57871 12.9952 1.74045 13.457 2.14891L13.6582 2.33934C14.2136 2.90113 14.4199 3.37493 14.4199 3.79344C14.4199 4.20208 14.2167 4.66266 13.6592 5.2202L13.6582 5.22118L13.0225 5.8618C11.6633 5.4249 10.5735 4.33628 10.1367 2.97704L10.7783 2.34227L10.7803 2.34032C11.3416 1.779 11.819 1.57434 12.2295 1.57664Z" fill="url(#paint2_linear_4075_19076)" stroke="url(#paint3_linear_4075_19076)"/>
<path d="M8.68164 4.43695C8.74816 4.57218 8.81847 4.70634 8.89844 4.84027V4.84125C8.97499 4.97522 9.06306 5.11106 9.14648 5.22308H9.14746C9.23622 5.36646 9.33781 5.49679 9.41895 5.59125C9.4594 5.65485 9.50088 5.70303 9.5293 5.73383V5.7348C9.74396 5.991 9.9819 6.23729 10.2168 6.42914C10.2419 6.45348 10.2657 6.4762 10.2881 6.49554C10.2948 6.50136 10.3173 6.52084 10.3486 6.5434C10.4494 6.62742 10.578 6.73257 10.7031 6.81488V6.81586C10.8453 6.92057 10.9923 7.01595 11.1357 7.10199V7.10101C11.2704 7.1847 11.4101 7.2581 11.5459 7.32562L8.48633 10.3862H8.48535L8.48047 10.3911C8.41354 10.4599 8.29624 10.5455 8.14941 10.6196C8.00265 10.6936 7.8634 10.7379 7.76855 10.7514L5.80469 11.0287C5.73285 11.0352 5.68451 11.0405 5.63965 11.0405C5.42171 11.0405 5.25437 10.9677 5.13965 10.853C5.02668 10.74 4.94787 10.5528 4.95801 10.311L4.96777 10.2045L5.25391 8.2182V8.21722C5.26711 8.12488 5.31305 7.98682 5.38867 7.83832C5.46396 7.69056 5.55073 7.56981 5.62012 7.50043L8.68164 4.43695Z" fill="url(#paint4_linear_4075_19076)" stroke="url(#paint5_linear_4075_19076)"/>
<defs>
<linearGradient id="paint0_linear_4075_19076" x1="4.15528" y1="4.0765" x2="14.0753" y2="13.9885" gradientUnits="userSpaceOnUse">
<stop stop-color="#A755FF"/>
<stop offset="1" stop-color="#6800D7"/>
</linearGradient>
<linearGradient id="paint1_linear_4075_19076" x1="4.15528" y1="4.0765" x2="14.0753" y2="13.9885" gradientUnits="userSpaceOnUse">
<stop stop-color="#A755FF"/>
<stop offset="1" stop-color="#6800D7"/>
</linearGradient>
<linearGradient id="paint2_linear_4075_19076" x1="10.7875" y1="1.94823" x2="14.9513" y2="6.11197" gradientUnits="userSpaceOnUse">
<stop stop-color="#A755FF"/>
<stop offset="1" stop-color="#6800D7"/>
</linearGradient>
<linearGradient id="paint3_linear_4075_19076" x1="10.7875" y1="1.94823" x2="14.9513" y2="6.11197" gradientUnits="userSpaceOnUse">
<stop stop-color="#A755FF"/>
<stop offset="1" stop-color="#6800D7"/>
</linearGradient>
<linearGradient id="paint4_linear_4075_19076" x1="6.23417" y1="4.86819" x2="12.4838" y2="11.1075" gradientUnits="userSpaceOnUse">
<stop stop-color="#A755FF"/>
<stop offset="1" stop-color="#6800D7"/>
</linearGradient>
<linearGradient id="paint5_linear_4075_19076" x1="6.23417" y1="4.86819" x2="12.4838" y2="11.1075" gradientUnits="userSpaceOnUse">
<stop stop-color="#A755FF"/>
<stop offset="1" stop-color="#6800D7"/>
</linearGradient>
</defs>
</svg>
