<svg width="17" height="17" viewBox="0 0 17 17" fill="none" xmlns="http://www.w3.org/2000/svg">
<g clip-path="url(#clip0_2459_18061)">
<path d="M7.50134 3.33316H4.70134C3.58124 3.33316 3.02119 3.33316 2.59336 3.55115C2.21704 3.74289 1.91108 4.04885 1.71933 4.42518C1.50134 4.853 1.50134 5.41305 1.50134 6.53316V12.1332C1.50134 13.2533 1.50134 13.8133 1.71933 14.2411C1.91108 14.6175 2.21704 14.9234 2.59336 15.1152C3.02119 15.3332 3.58124 15.3332 4.70134 15.3332H10.3013C11.4214 15.3332 11.9815 15.3332 12.4093 15.1152C12.7856 14.9234 13.0916 14.6175 13.2834 14.2411C13.5013 13.8133 13.5013 13.2533 13.5013 12.1332V9.33316M5.50133 11.3332H6.61769C6.94381 11.3332 7.10687 11.3332 7.26032 11.2963C7.39637 11.2637 7.52643 11.2098 7.64572 11.1367C7.78028 11.0542 7.89558 10.9389 8.12618 10.7083L14.5013 4.33316C15.0536 3.78088 15.0536 2.88544 14.5013 2.33316C13.9491 1.78087 13.0536 1.78087 12.5013 2.33316L6.12617 8.70832C5.89556 8.93892 5.78026 9.05422 5.69781 9.18878C5.6247 9.30808 5.57083 9.43814 5.53817 9.57418C5.50132 9.72763 5.50133 9.8907 5.50133 10.2168V11.3332Z" stroke="url(#paint0_linear_2459_18061)" stroke-width="1.33333" stroke-linecap="round" stroke-linejoin="round"/>
</g>
<defs>
<linearGradient id="paint0_linear_2459_18061" x1="4.49278" y1="4.118" x2="14.9982" y2="14.6205" gradientUnits="userSpaceOnUse">
<stop stop-color="#A755FF"/>
<stop offset="1" stop-color="#6800D7"/>
</linearGradient>
<clipPath id="clip0_2459_18061">
<rect width="16" height="16" fill="white" transform="translate(0.167969 0.666504)"/>
</clipPath>
</defs>
</svg>
