<svg width="72" height="72" viewBox="0 0 72 72" fill="none" xmlns="http://www.w3.org/2000/svg">
<path d="M70.0514 33.8368C71.0876 33.771 71.8793 32.8766 71.7595 31.8453C70.9262 24.6721 67.9518 17.8989 63.2029 12.4203C58.0426 6.46709 51.0719 2.37104 43.3599 0.760367C35.6479 -0.850307 27.6205 0.113335 20.5088 3.5035C13.3971 6.89366 7.59391 12.5231 3.98922 19.5285C0.384528 26.5339 -0.822593 34.5283 0.553 42.2857C1.92859 50.0431 5.81094 57.135 11.6046 62.4738C17.3982 67.8126 24.7833 71.1035 32.627 71.8416C39.8455 72.521 47.0857 71.0038 53.4068 67.512C54.3156 67.0099 54.5831 65.8458 54.0344 64.9644C53.4856 64.0831 52.3285 63.8187 51.4167 64.3152C45.7966 67.3752 39.3785 68.7005 32.9793 68.0983C25.9548 67.4372 19.341 64.4901 14.1525 59.7089C8.96395 54.9277 5.48708 48.5764 4.25516 41.6292C3.02324 34.682 4.10428 27.5225 7.33249 21.2488C10.5607 14.9751 15.7578 9.93358 22.1267 6.8975C28.4957 3.86141 35.6847 2.99841 42.5912 4.44087C49.4978 5.88332 55.7404 9.55157 60.3618 14.883C64.5717 19.7398 67.2243 25.7325 68.0014 32.0843C68.1275 33.1149 69.0152 33.9027 70.0514 33.8368Z" fill="url(#paint0_linear_317_10101)"/>
<defs>
<linearGradient id="paint0_linear_317_10101" x1="16.0563" y1="11.8033" x2="72.4438" y2="68.1748" gradientUnits="userSpaceOnUse">
<stop stop-color="#A755FF"/>
<stop offset="1" stop-color="#6800D7"/>
</linearGradient>
</defs>
</svg>
