<svg width="16" height="16" viewBox="0 0 16 16" fill="none" xmlns="http://www.w3.org/2000/svg">
<path d="M6.31334 10.1866C6.18668 10.1866 6.06001 10.1399 5.96001 10.0399C5.41334 9.49328 5.11334 8.76661 5.11334 7.99995C5.11334 6.40661 6.40668 5.11328 8.00001 5.11328C8.76668 5.11328 9.49334 5.41328 10.04 5.95995C10.1333 6.05328 10.1867 6.17995 10.1867 6.31328C10.1867 6.44661 10.1333 6.57328 10.04 6.66661L6.66668 10.0399C6.56668 10.1399 6.44001 10.1866 6.31334 10.1866ZM8.00001 6.11328C6.96001 6.11328 6.11334 6.95995 6.11334 7.99995C6.11334 8.33328 6.20001 8.65328 6.36001 8.93328L8.93334 6.35995C8.65334 6.19995 8.33334 6.11328 8.00001 6.11328Z" fill="#292D32"/>
<path d="M3.73335 12.3399C3.62002 12.3399 3.50002 12.2999 3.40668 12.2199C2.69335 11.6132 2.05335 10.8666 1.50668 9.99991C0.800018 8.89991 0.800018 7.10657 1.50668 5.99991C3.13335 3.45324 5.50002 1.98657 8.00002 1.98657C9.46668 1.98657 10.9134 2.49324 12.18 3.44657C12.4 3.61324 12.4467 3.92657 12.28 4.14657C12.1134 4.36657 11.8 4.41324 11.58 4.24657C10.4867 3.41991 9.24668 2.98657 8.00002 2.98657C5.84668 2.98657 3.78668 4.27991 2.34668 6.53991C1.84668 7.31991 1.84668 8.6799 2.34668 9.4599C2.84668 10.2399 3.42002 10.9132 4.05335 11.4599C4.26002 11.6399 4.28668 11.9532 4.10668 12.1666C4.01335 12.2799 3.87335 12.3399 3.73335 12.3399Z" fill="#292D32"/>
<path d="M8.00002 14.0133C7.11335 14.0133 6.24669 13.8333 5.41335 13.48C5.16002 13.3733 5.04002 13.08 5.14669 12.8266C5.25335 12.5733 5.54669 12.4533 5.80002 12.56C6.50669 12.86 7.24669 13.0133 7.99335 13.0133C10.1467 13.0133 12.2067 11.72 13.6467 9.45996C14.1467 8.67996 14.1467 7.31996 13.6467 6.53996C13.44 6.21329 13.2134 5.89996 12.9734 5.60662C12.8 5.39329 12.8334 5.07996 13.0467 4.89996C13.26 4.72662 13.5734 4.75329 13.7534 4.97329C14.0134 5.29329 14.2667 5.63996 14.4934 5.99996C15.2 7.09996 15.2 8.89329 14.4934 9.99996C12.8667 12.5466 10.5 14.0133 8.00002 14.0133Z" fill="#292D32"/>
<path d="M8.45997 10.8467C8.22664 10.8467 8.01331 10.68 7.96664 10.44C7.91331 10.1667 8.09331 9.90665 8.36664 9.85999C9.09997 9.72665 9.71331 9.11332 9.84664 8.37999C9.89997 8.10665 10.16 7.93332 10.4333 7.97999C10.7066 8.03332 10.8866 8.29332 10.8333 8.56665C10.62 9.71999 9.69997 10.6333 8.55331 10.8467C8.51997 10.84 8.49331 10.8467 8.45997 10.8467Z" fill="#292D32"/>
<path d="M1.33336 15.1667C1.20669 15.1667 1.08002 15.12 0.980022 15.02C0.786689 14.8267 0.786689 14.5067 0.980022 14.3134L5.96002 9.33335C6.15336 9.14002 6.47336 9.14002 6.66669 9.33335C6.86002 9.52669 6.86002 9.84669 6.66669 10.04L1.68669 15.02C1.58669 15.12 1.46002 15.1667 1.33336 15.1667Z" fill="#292D32"/>
<path d="M9.68669 6.81329C9.56002 6.81329 9.43335 6.76663 9.33335 6.66663C9.14002 6.47329 9.14002 6.15329 9.33335 5.95996L14.3134 0.979961C14.5067 0.786628 14.8267 0.786628 15.02 0.979961C15.2134 1.17329 15.2134 1.49329 15.02 1.68663L10.04 6.66663C9.94002 6.76663 9.81335 6.81329 9.68669 6.81329Z" fill="#292D32"/>
</svg>
