<svg xmlns="http://www.w3.org/2000/svg" width="17" height="16" viewBox="0 0 17 16" fill="none">
<path d="M8.05371 15C11.9197 15 15.0537 11.866 15.0537 8C15.0537 4.13401 11.9197 1 8.05371 1C4.18772 1 1.05371 4.13401 1.05371 8C1.05371 11.866 4.18772 15 8.05371 15Z" fill="url(#paint0_linear_2722_37185)"/>
<path d="M10.6606 10.1408L10.9715 8.16505H9.02631V6.8835C9.02631 6.34285 9.29756 5.81555 10.1688 5.81555H11.0537V4.13349C11.0537 4.13349 10.251 4 9.48386 4C7.88111 4 6.83456 4.94647 6.83456 6.6592V8.16505H5.05371V10.1408H6.83456V14.9172C7.19206 14.972 7.55781 15 7.93041 15C8.30301 15 8.66881 14.972 9.02631 14.9172V10.1408H10.6606Z" fill="white"/>
<defs>
<linearGradient id="paint0_linear_2722_37185" x1="8.05371" y1="1" x2="8.05371" y2="14.9585" gradientUnits="userSpaceOnUse">
<stop stop-color="#18ACFE"/>
<stop offset="1" stop-color="#0163E0"/>
</linearGradient>
</defs>
</svg>