<svg width="24" height="25" viewBox="0 0 24 25" fill="none" xmlns="http://www.w3.org/2000/svg">
<path opacity="0.4" d="M12.375 16.875V19.4785C12.3747 19.4794 12.3743 19.4804 12.374 19.4814C12.3726 19.4864 12.3703 19.4943 12.3682 19.502C12.3637 19.5178 12.3578 19.5403 12.3525 19.5664L12.29 19.877L12.585 19.9902C13.0059 20.1521 13.3479 20.4941 13.5098 20.915L13.623 21.21L13.9336 21.1475C13.9597 21.1422 13.9822 21.1363 13.998 21.1318C14.0057 21.1297 14.0136 21.1274 14.0186 21.126C14.0196 21.1257 14.0206 21.1253 14.0215 21.125H18C18.2029 21.125 18.375 21.2971 18.375 21.5C18.375 21.7029 18.2029 21.875 18 21.875H14.0215C14.0206 21.8747 14.0196 21.8743 14.0186 21.874C14.0136 21.8726 14.0057 21.8703 13.998 21.8682C13.9822 21.8637 13.9597 21.8578 13.9336 21.8525L13.624 21.79L13.5098 22.085C13.2732 22.6965 12.6884 23.125 12 23.125C11.3116 23.125 10.7268 22.6965 10.4902 22.085L10.376 21.79L10.0664 21.8525C10.0403 21.8578 10.0178 21.8637 10.002 21.8682C9.99426 21.8703 9.98638 21.8726 9.98145 21.874C9.98041 21.8743 9.97941 21.8747 9.97852 21.875H6C5.79711 21.875 5.625 21.7029 5.625 21.5C5.625 21.2971 5.79711 21.125 6 21.125H9.97852C9.97941 21.1253 9.98041 21.1257 9.98145 21.126C9.98638 21.1274 9.99426 21.1297 10.002 21.1318C10.0178 21.1363 10.0403 21.1422 10.0664 21.1475L10.377 21.21L10.4902 20.915C10.6521 20.4941 10.9941 20.1521 11.415 19.9902L11.71 19.877L11.6475 19.5664C11.6422 19.5403 11.6363 19.5178 11.6318 19.502C11.6297 19.4943 11.6274 19.4864 11.626 19.4814C11.6257 19.4804 11.6253 19.4794 11.625 19.4785V16.875H12.375Z" fill="url(#paint0_linear_1750_35098)" stroke="url(#paint1_linear_1750_35098)" stroke-width="0.75"/>
<path d="M8.5 2.875H9.5498C10.0419 2.875 10.2843 2.94896 10.4404 3.04297C10.6055 3.14243 10.721 3.28794 10.9297 3.56445V3.56543L11.9805 4.96484L11.9834 4.96875C12.1068 5.1287 12.2542 5.33209 12.4844 5.47168C12.7256 5.61793 13.0165 5.6748 13.4004 5.6748H15.5C16.9027 5.6748 17.6294 5.85988 18.0352 6.26562C18.4406 6.67143 18.625 7.3977 18.625 8.7998V13C18.625 14.4027 18.4409 15.1294 18.0352 15.5352C17.6294 15.9409 16.9027 16.125 15.5 16.125H8.5C7.09732 16.125 6.37059 15.9409 5.96484 15.5352C5.5591 15.1294 5.375 14.4027 5.375 13V6C5.375 4.59732 5.5591 3.87059 5.96484 3.46484C6.37059 3.0591 7.09732 2.875 8.5 2.875Z" fill="url(#paint2_linear_1750_35098)" stroke="url(#paint3_linear_1750_35098)" stroke-width="0.75"/>
<defs>
<linearGradient id="paint0_linear_1750_35098" x1="8.26056" y1="17.6475" x2="12.7418" y2="26.2875" gradientUnits="userSpaceOnUse">
<stop stop-color="#A755FF"/>
<stop offset="1" stop-color="#6800D7"/>
</linearGradient>
<linearGradient id="paint1_linear_1750_35098" x1="8.26056" y1="17.6475" x2="12.7418" y2="26.2875" gradientUnits="userSpaceOnUse">
<stop stop-color="#A755FF"/>
<stop offset="1" stop-color="#6800D7"/>
</linearGradient>
<linearGradient id="paint2_linear_1750_35098" x1="8.12207" y1="4.79508" x2="19.0863" y2="15.7562" gradientUnits="userSpaceOnUse">
<stop stop-color="#A755FF"/>
<stop offset="1" stop-color="#6800D7"/>
</linearGradient>
<linearGradient id="paint3_linear_1750_35098" x1="8.12207" y1="4.79508" x2="19.0863" y2="15.7562" gradientUnits="userSpaceOnUse">
<stop stop-color="#A755FF"/>
<stop offset="1" stop-color="#6800D7"/>
</linearGradient>
</defs>
</svg>
