<svg width="24" height="25" viewBox="0 0 24 25" fill="none" xmlns="http://www.w3.org/2000/svg">
<path d="M5.77026 11.2246H18.2195C18.7566 11.2246 19.2728 11.3586 19.7244 11.6152V11.6162L19.7351 11.6211C20.0676 11.7961 20.3572 12.0324 20.6052 12.332L20.7566 12.54L20.7585 12.543C21.2114 13.1559 21.407 13.9014 21.3269 14.6494L21.3259 14.6602L20.9568 19.3027C20.8846 20.0354 20.8107 20.7139 20.4294 21.2285C20.0726 21.7102 19.3783 22.125 17.8601 22.125H6.14038C4.62222 22.125 3.92432 21.7105 3.56616 21.2295C3.27984 20.8449 3.16624 20.368 3.09937 19.8477L3.0437 19.3154L2.67358 14.6504L2.67261 14.6426L2.65796 14.3428C2.65709 13.6438 2.89657 12.9559 3.34546 12.3809L3.34448 12.3799C3.60282 12.0603 3.91386 11.8052 4.25757 11.6201L4.26245 11.6172C4.72706 11.3581 5.23471 11.2246 5.77026 11.2246ZM9.60034 16.0645C8.99976 16.0645 8.52515 16.556 8.52515 17.1396C8.52517 17.7232 8.99977 18.2148 9.60034 18.2148H14.3904C14.9873 18.2146 15.4646 17.7366 15.4646 17.1396C15.4646 16.5562 14.9908 16.0647 14.3904 16.0645H9.60034Z" fill="url(#paint0_linear_4008_27521)" stroke="url(#paint1_linear_4008_27521)" stroke-width="0.75"/>
<path opacity="0.4" d="M8.04016 2.875H9.21985C9.89558 2.875 10.2944 2.98429 10.5812 3.14844C10.8718 3.31482 11.0881 3.55824 11.3693 3.92285V3.92383L12.5695 5.53418L12.5724 5.53809C12.6338 5.61844 12.6936 5.69758 12.7511 5.76074C12.8124 5.82809 12.8878 5.89741 12.9894 5.94824C13.091 5.99908 13.1927 6.01771 13.2853 6.02637C13.3728 6.03453 13.4743 6.03516 13.5802 6.03516H15.9601C17.7314 6.03516 18.7586 6.31141 19.3634 6.91602C19.9682 7.52084 20.2452 8.54863 20.2452 10.3203V11.0469C20.1969 11.0172 20.1483 10.9872 20.0978 10.96H20.0968C19.5229 10.6411 18.8919 10.4746 18.2296 10.4746H5.76965C5.18985 10.4747 4.62447 10.6024 4.11145 10.8506L3.89465 10.9639C3.84647 10.99 3.80058 11.0187 3.755 11.0469V7.16016C3.755 5.38847 4.03202 4.36166 4.63684 3.75684C5.24166 3.15201 6.26848 2.875 8.04016 2.875Z" fill="url(#paint2_linear_4008_27521)" stroke="url(#paint3_linear_4008_27521)" stroke-width="0.75"/>
<defs>
<linearGradient id="paint0_linear_4008_27521" x1="6.61742" y1="12.7594" x2="14.665" y2="26.1821" gradientUnits="userSpaceOnUse">
<stop stop-color="#A755FF"/>
<stop offset="1" stop-color="#6800D7"/>
</linearGradient>
<linearGradient id="paint1_linear_4008_27521" x1="6.61742" y1="12.7594" x2="14.665" y2="26.1821" gradientUnits="userSpaceOnUse">
<stop stop-color="#A755FF"/>
<stop offset="1" stop-color="#6800D7"/>
</linearGradient>
<linearGradient id="paint2_linear_4008_27521" x1="7.22461" y1="4.02787" x2="13.3325" y2="15.3231" gradientUnits="userSpaceOnUse">
<stop stop-color="#A755FF"/>
<stop offset="1" stop-color="#6800D7"/>
</linearGradient>
<linearGradient id="paint3_linear_4008_27521" x1="7.22461" y1="4.02787" x2="13.3325" y2="15.3231" gradientUnits="userSpaceOnUse">
<stop stop-color="#A755FF"/>
<stop offset="1" stop-color="#6800D7"/>
</linearGradient>
</defs>
</svg>
