<svg width="17" height="16" viewBox="0 0 17 16" fill="none" xmlns="http://www.w3.org/2000/svg">
<path d="M14.4956 7.42877L14.4955 7.42878L14.4965 7.43676C14.5207 7.6485 14.5332 7.87597 14.5332 8.14665C14.5332 10.0575 13.8529 11.6253 12.7069 12.6864L12.7066 12.6867C11.708 13.6127 10.3199 14.1666 8.63322 14.1666C8.5836 14.1666 8.57729 14.166 8.5706 14.165L8.53998 14.1606L8.50905 14.1601C6.15532 14.1169 4.12672 12.7494 3.13349 10.7691L3.01159 10.5261C2.66283 9.74895 2.46655 8.89664 2.46655 7.99998C2.46655 7.00878 2.7064 6.07177 3.12694 5.23058C4.12009 3.25067 6.14845 1.88305 8.50903 1.8399L8.53997 1.83934L8.5706 1.83496C8.57729 1.83401 8.5836 1.83331 8.63322 1.83331C10.0322 1.83331 11.2219 2.25861 12.1969 2.97602L12.1969 2.97604L12.2011 2.97907C12.2717 3.02992 12.2912 3.15011 12.2104 3.22906L12.2102 3.22926L11.285 4.13452C11.2848 4.13468 11.2846 4.13485 11.2845 4.13502C11.2174 4.19964 11.1348 4.19701 11.0845 4.16221C10.5144 3.767 9.70353 3.41331 8.63322 3.41331C8.63075 3.41331 8.62801 3.4133 8.62501 3.4133C8.59162 3.41322 8.52694 3.41306 8.45827 3.42108C6.6928 3.48398 5.19941 4.57995 4.51632 6.11692C4.4567 6.25105 4.40416 6.38602 4.35888 6.52186L4.35886 6.52185L4.35737 6.52647C4.20985 6.98378 4.11989 7.48228 4.11989 7.99998C4.11989 8.51885 4.21026 9.01213 4.36545 9.4778C4.94605 11.2267 6.55158 12.5088 8.46019 12.5789C8.52931 12.5867 8.58807 12.5867 8.62673 12.5867L8.63322 12.5866C9.72426 12.5866 10.5779 12.2845 11.2317 11.8307L11.2331 11.8297C12.249 11.1193 12.7147 10.058 12.803 9.31935L12.8699 8.75999H12.3066H9.29989C9.20936 8.75999 9.13322 8.68385 9.13322 8.59332V7.45331C9.13322 7.36278 9.20936 7.28664 9.29989 7.28664H14.3332C14.4221 7.28664 14.488 7.35088 14.4956 7.42877Z" fill="black" stroke="#1D0B30"/>
</svg>
