<svg width="14" height="12" viewBox="0 0 14 12" fill="none" xmlns="http://www.w3.org/2000/svg">
<path d="M1.00022 8.26581C0.447604 9.22294 0.775553 10.4468 1.73272 10.9994C2.68988 11.552 3.91381 11.2241 4.46643 10.267L8.23798 3.73466C8.7906 2.77752 8.46265 1.55364 7.50548 1.00104C6.54832 0.448435 5.32439 0.776374 4.77177 1.73351L1.00022 8.26581Z" fill="#F5BC1D"/>
<path d="M8.45314 1.73336C7.90052 0.776228 6.6766 0.448289 5.71943 1.00089C4.76226 1.55349 4.43432 2.77738 4.98693 3.73451L8.75848 10.2668C9.3111 11.2239 10.535 11.5519 11.4922 10.9993C12.4494 10.4467 12.7773 9.2228 12.2247 8.26566L8.45314 1.73336Z" fill="#547DBF"/>
<path d="M2.6527 11.4239C3.76556 11.4239 4.66771 10.5218 4.66771 9.40899C4.66771 8.29616 3.76556 7.39404 2.6527 7.39404C1.53985 7.39404 0.637695 8.29616 0.637695 9.40899C0.637695 10.5218 1.53985 11.4239 2.6527 11.4239Z" fill="#39A751"/>
</svg>
