<svg width="100" height="100" viewBox="0 0 100 100" fill="none" xmlns="http://www.w3.org/2000/svg">
<path d="M37.7613 92.4528C37.3493 93.882 38.1728 95.3828 39.6234 95.7121C49.6395 97.986 60.154 96.9114 69.5356 92.6102C79.7354 87.9339 87.9194 79.7539 92.6007 69.5563C97.282 59.3588 98.15 47.8203 95.047 37.0371C91.944 26.254 85.076 16.9417 75.6905 10.792C66.3051 4.64235 55.0251 2.06338 43.8998 3.52364C32.7745 4.9839 22.5421 10.3865 15.0616 18.7499C7.58108 27.1133 3.34881 37.8826 3.13368 49.1013C2.9358 59.42 6.14851 69.4892 12.2323 77.7645C13.1133 78.9629 14.8181 79.1188 15.964 78.1704C17.1099 77.222 17.2621 75.529 16.39 74.324C11.1235 67.0473 8.34609 58.2339 8.51924 49.2046C8.70965 39.2751 12.4556 29.7433 19.0765 22.341C25.6974 14.9386 34.7539 10.1568 44.6008 8.86438C54.4476 7.57193 64.4314 9.85454 72.7383 15.2975C81.0453 20.7405 87.1241 28.9827 89.8705 38.5267C92.617 48.0708 91.8487 58.2833 87.7054 67.309C83.562 76.3347 76.3185 83.5748 67.2907 87.7137C59.0814 91.4775 49.892 92.4498 41.1178 90.5265C39.6648 90.208 38.1734 91.0235 37.7613 92.4528Z" fill="#F3EFF6"/>
<path d="M94.3435 47.183C97.412 46.9881 99.7729 44.3328 99.2383 41.305C97.6715 32.4323 93.7284 24.1107 87.7819 17.2504C80.6148 8.98207 70.9333 3.29311 60.2222 1.05606C49.5111 -1.18098 38.3618 0.15741 28.4845 4.86597C18.6072 9.57452 10.5472 17.3932 5.54064 27.1229C0.534127 36.8526 -1.14243 47.956 0.768116 58.7302C2.67866 69.5043 8.07081 79.3542 16.1175 86.7692C24.1643 94.1842 34.4213 98.7548 45.3153 99.7801C54.3542 100.631 63.4175 99.0017 71.5478 95.1187C74.3223 93.7937 75.1104 90.329 73.4853 87.719C71.8602 85.1089 68.4378 84.3518 65.6225 85.5877C59.5977 88.2325 52.9697 89.3169 46.3586 88.6947C37.8905 87.8978 29.9176 84.345 23.6627 78.5812C17.4079 72.8174 13.2165 65.1609 11.7314 56.7861C10.2463 48.4112 11.5495 39.7804 15.4412 32.2174C19.3328 24.6543 25.598 18.5767 33.2757 14.9167C40.9535 11.2567 49.6199 10.2163 57.9458 11.9552C66.2717 13.6941 73.7973 18.1162 79.3684 24.5433C83.7177 29.561 86.6883 35.5844 88.0386 42.0241C88.6696 45.0333 91.275 47.378 94.3435 47.183Z" fill="url(#paint0_linear_54_15377)"/>
<defs>
<linearGradient id="paint0_linear_54_15377" x1="22.3005" y1="16.3934" x2="100.616" y2="94.6872" gradientUnits="userSpaceOnUse">
<stop stop-color="#A755FF"/>
<stop offset="1" stop-color="#6800D7"/>
</linearGradient>
</defs>
</svg>
