<svg width="32" height="32" viewBox="0 0 32 32" fill="none" xmlns="http://www.w3.org/2000/svg">
<path opacity="0.4" d="M16.8269 3.66309C17.3186 3.48934 17.8556 3.46369 18.3318 3.6416L18.3396 3.64453L18.3474 3.64648C19.4267 4.01006 20.1325 5.23545 19.8992 6.27637L19.8953 6.29297L19.8923 6.30957L19.2126 10.6826L19.2117 10.6914C19.1428 11.191 19.2569 11.7149 19.6052 12.1094V12.1104C19.6073 12.1128 19.61 12.1148 19.6121 12.1172C19.6131 12.1183 19.614 12.12 19.615 12.1211V12.1201C19.9424 12.499 20.4144 12.6992 20.907 12.6992H26.3728C27.2383 12.6992 27.953 13.0263 28.3757 13.5508L28.4558 13.6592C28.8573 14.2415 28.9482 14.9867 28.6501 15.8008L28.6472 15.8086L28.6453 15.8174L25.365 25.8037L25.3591 25.8223L25.3542 25.8408C25.187 26.5266 24.7171 27.1812 24.0671 27.668C23.4182 28.1539 22.6243 28.4463 21.8533 28.4463H16.6531C16.2569 28.4463 15.7643 28.3771 15.3093 28.2432C14.8428 28.1058 14.48 27.9196 14.2869 27.7266L14.2644 27.7031L14.239 27.6836L10.0369 24.4365L10.0066 24.4053V12.9648L10.0818 12.8389L15.7078 4.47852L15.7107 4.47559C15.9273 4.14818 16.3308 3.83842 16.8269 3.66309Z" fill="url(#paint0_linear_4012_29219)" stroke="url(#paint1_linear_4012_29219)"/>
<path d="M5.573 9.00684H6.94702C7.93395 9.00687 8.50063 9.20165 8.82983 9.51562C9.15318 9.82406 9.35327 10.3501 9.35327 11.2803V24.6934C9.35327 25.6235 9.15317 26.1496 8.82983 26.458C8.50063 26.772 7.93395 26.9668 6.94702 26.9668H5.573C4.58615 26.9667 4.01938 26.772 3.69019 26.458C3.36689 26.1496 3.16675 25.6235 3.16675 24.6934V11.2803C3.16675 10.3502 3.36688 9.82407 3.69019 9.51562C4.01938 9.20166 4.58615 9.00689 5.573 9.00684Z" fill="url(#paint2_linear_4012_29219)" stroke="url(#paint3_linear_4012_29219)"/>
<defs>
<linearGradient id="paint0_linear_4012_29219" x1="13.9265" y1="7.26982" x2="33.5188" y2="22.243" gradientUnits="userSpaceOnUse">
<stop stop-color="#A755FF"/>
<stop offset="1" stop-color="#6800D7"/>
</linearGradient>
<linearGradient id="paint1_linear_4012_29219" x1="13.9265" y1="7.26982" x2="33.5188" y2="22.243" gradientUnits="userSpaceOnUse">
<stop stop-color="#A755FF"/>
<stop offset="1" stop-color="#6800D7"/>
</linearGradient>
<linearGradient id="paint2_linear_4012_29219" x1="4.26941" y1="11.615" x2="14.1098" y2="15.3439" gradientUnits="userSpaceOnUse">
<stop stop-color="#A755FF"/>
<stop offset="1" stop-color="#6800D7"/>
</linearGradient>
<linearGradient id="paint3_linear_4012_29219" x1="4.26941" y1="11.615" x2="14.1098" y2="15.3439" gradientUnits="userSpaceOnUse">
<stop stop-color="#A755FF"/>
<stop offset="1" stop-color="#6800D7"/>
</linearGradient>
</defs>
</svg>
