<svg width="16" height="16" viewBox="0 0 16 16" fill="none" xmlns="http://www.w3.org/2000/svg">
<path d="M9.85254 2.13217C10.3395 1.78015 10.6248 1.81525 10.7354 1.87338C10.8327 1.92465 10.9912 2.09686 11.0215 2.54233L11.0264 2.75034L10.9795 5.2767C10.9743 5.5492 11.0557 5.82984 11.1689 6.06381C11.2811 6.29538 11.4502 6.53283 11.6709 6.6976V6.69858L13.3242 7.95151L13.3252 7.95248C13.7851 8.2996 13.839 8.5785 13.8164 8.70737C13.7964 8.82129 13.6811 9.0237 13.2842 9.18881L13.0957 9.2562L10.9434 9.92905L10.9424 9.93002C10.6623 10.0183 10.4081 10.2009 10.2148 10.4027C10.046 10.579 9.89177 10.8024 9.80664 11.0492L9.77539 11.1537L9.2627 13.1126C9.07042 13.8439 8.79746 13.9911 8.7041 14.0052C8.61157 14.0192 8.30809 13.9603 7.91113 13.3177L6.73828 11.4173H6.7373C6.57173 11.1488 6.3148 10.9419 6.05371 10.806C5.79225 10.6699 5.47733 10.5786 5.16797 10.5941H5.16699L2.94043 10.7074C2.18853 10.745 1.96568 10.5299 1.92383 10.4447C1.88209 10.3595 1.84747 10.0513 2.33789 9.47885L2.33887 9.47983L3.6582 7.94662V7.94565C3.85024 7.72242 3.96993 7.43365 4.02734 7.16049C4.08469 6.88757 4.09214 6.57276 4.00293 6.2894L3.33008 4.13705C3.15983 3.5878 3.2774 3.32828 3.37109 3.23569C3.45257 3.15518 3.66125 3.05783 4.07812 3.15463L4.27051 3.20834L6.23633 3.85483L6.24023 3.8558C6.49826 3.93837 6.78787 3.94392 7.04492 3.90463C7.2993 3.86574 7.57534 3.77432 7.79785 3.61166L7.79883 3.61264L9.85156 2.13217H9.85254Z" fill="url(#paint0_linear_1390_27992)" stroke="url(#paint1_linear_1390_27992)"/>
<g opacity="0.4">
<mask id="path-2-inside-1_1390_27992" fill="white">
<path d="M14.2936 13.6467L12.2735 11.6267C12.0802 11.4333 11.7602 11.4333 11.5669 11.6267C11.3735 11.82 11.3735 12.14 11.5669 12.3333L13.5869 14.3533C13.6869 14.4533 13.8135 14.5 13.9402 14.5C14.0669 14.5 14.1936 14.4533 14.2936 14.3533C14.4869 14.16 14.4869 13.84 14.2936 13.6467Z"/>
</mask>
<path d="M14.2936 13.6467L12.2735 11.6267C12.0802 11.4333 11.7602 11.4333 11.5669 11.6267C11.3735 11.82 11.3735 12.14 11.5669 12.3333L13.5869 14.3533C13.6869 14.4533 13.8135 14.5 13.9402 14.5C14.0669 14.5 14.1936 14.4533 14.2936 14.3533C14.4869 14.16 14.4869 13.84 14.2936 13.6467Z" fill="url(#paint2_linear_1390_27992)"/>
<path d="M14.2936 13.6467L15.0007 12.9396L15.0007 12.9395L14.2936 13.6467ZM12.2735 11.6267L11.5664 12.3338L11.5664 12.3338L12.2735 11.6267ZM11.5669 12.3333L10.8598 13.0404L10.8598 13.0404L11.5669 12.3333ZM13.5869 14.3533L14.294 13.6462L14.294 13.6462L13.5869 14.3533ZM14.2936 13.6467L15.0007 12.9395L12.9806 10.9195L12.2735 11.6267L11.5664 12.3338L13.5865 14.3538L14.2936 13.6467ZM12.2735 11.6267L12.9806 10.9196C12.3968 10.3357 11.4436 10.3357 10.8598 10.9196L11.5669 11.6267L12.274 12.3338C12.0768 12.531 11.7636 12.531 11.5664 12.3338L12.2735 11.6267ZM11.5669 11.6267L10.8598 10.9196C10.2759 11.5034 10.2759 12.4566 10.8598 13.0404L11.5669 12.3333L12.274 11.6262C12.4712 11.8234 12.4712 12.1366 12.274 12.3338L11.5669 11.6267ZM11.5669 12.3333L10.8598 13.0404L12.8798 15.0604L13.5869 14.3533L14.294 13.6462L12.274 11.6262L11.5669 12.3333ZM13.5869 14.3533L12.8798 15.0604C13.1772 15.3578 13.5626 15.5 13.9402 15.5V14.5V13.5C14.0645 13.5 14.1966 13.5488 14.294 13.6462L13.5869 14.3533ZM13.9402 14.5V15.5C14.3177 15.5 14.7032 15.3579 15.0007 15.0604L14.2936 14.3533L13.5865 13.6462C13.6839 13.5488 13.816 13.5 13.9402 13.5V14.5ZM14.2936 14.3533L15.0007 15.0604C15.5845 14.4766 15.5845 13.5234 15.0007 12.9396L14.2936 13.6467L13.5865 14.3538C13.3893 14.1566 13.3893 13.8434 13.5865 13.6462L14.2936 14.3533Z" fill="url(#paint3_linear_1390_27992)" mask="url(#path-2-inside-1_1390_27992)"/>
</g>
<defs>
<linearGradient id="paint0_linear_1390_27992" x1="4.28175" y1="3.49473" x2="14.596" y2="13.6088" gradientUnits="userSpaceOnUse">
<stop stop-color="#A755FF"/>
<stop offset="1" stop-color="#6800D7"/>
</linearGradient>
<linearGradient id="paint1_linear_1390_27992" x1="4.28175" y1="3.49473" x2="14.596" y2="13.6088" gradientUnits="userSpaceOnUse">
<stop stop-color="#A755FF"/>
<stop offset="1" stop-color="#6800D7"/>
</linearGradient>
<linearGradient id="paint2_linear_1390_27992" x1="12.0946" y1="11.9765" x2="14.4584" y2="14.3383" gradientUnits="userSpaceOnUse">
<stop stop-color="#A755FF"/>
<stop offset="1" stop-color="#6800D7"/>
</linearGradient>
<linearGradient id="paint3_linear_1390_27992" x1="12.0946" y1="11.9765" x2="14.4584" y2="14.3383" gradientUnits="userSpaceOnUse">
<stop stop-color="#A755FF"/>
<stop offset="1" stop-color="#6800D7"/>
</linearGradient>
</defs>
</svg>
