<svg width="82" height="24" viewBox="0 0 82 24" fill="none" xmlns="http://www.w3.org/2000/svg">
<rect width="24" height="24" rx="6" fill="url(#paint0_linear_470_14581)"/>
<path d="M21.007 13.926C18.955 13.8533 15.6518 13.9343 11.7439 14.7856C8.97037 15.3878 5.57958 16.8019 3 18L13.871 7.66328L21.007 13.928V13.926Z" fill="#A27DF5"/>
<path d="M20.0728 10.9898C18.0375 11.2577 14.7927 11.8889 11.0828 13.3777C8.45111 14.4326 5.34394 16.3907 3 18L11.9858 6L20.0728 10.9898Z" fill="white"/>
<path d="M30.5917 18.0706H28.5L32.6835 6.48675H34.7594L38.9429 18.0706H36.8036L35.8686 15.3925H31.5425L30.5917 18.0706ZM33.46 9.9413L32.1289 13.6811H35.2823L33.9512 9.9413C33.909 9.78284 33.8614 9.62437 33.8086 9.4659C33.7558 9.30744 33.7241 9.1701 33.7135 9.05389C33.6924 9.15954 33.6554 9.29687 33.6026 9.4659C33.5603 9.62437 33.5128 9.78284 33.46 9.9413Z" fill="#1D0B30"/>
<path d="M41.5681 18.0706H39.6348V10.2424H41.4096L41.6473 11.6369L41.4255 11.4467C41.5839 11.0664 41.8744 10.7336 42.297 10.4484C42.7196 10.1526 43.2478 10.0047 43.8817 10.0047C44.5684 10.0047 45.1283 10.1843 45.5614 10.5435C46.0051 10.9027 46.3115 11.3781 46.4805 11.9697H46.1636C46.2798 11.3781 46.5756 10.9027 47.051 10.5435C47.537 10.1843 48.1233 10.0047 48.81 10.0047C49.7608 10.0047 50.4897 10.2741 50.9968 10.8129C51.5039 11.3411 51.7574 12.0542 51.7574 12.9521V18.0706H49.84V13.4592C49.84 12.8993 49.6974 12.4767 49.4121 12.1915C49.1375 11.8957 48.7677 11.7478 48.3029 11.7478C48.0071 11.7478 47.7324 11.8165 47.4788 11.9538C47.2359 12.0911 47.0404 12.2972 46.8925 12.5718C46.7446 12.8465 46.6707 13.2004 46.6707 13.6335V18.0706H44.7374V13.4434C44.7374 12.894 44.6001 12.4767 44.3254 12.1915C44.0507 11.9063 43.6862 11.7637 43.232 11.7637C42.9256 11.7637 42.6456 11.8323 42.3921 11.9697C42.1386 12.0964 41.9378 12.3024 41.7899 12.5877C41.642 12.8623 41.5681 13.211 41.5681 13.6335V18.0706Z" fill="#1D0B30"/>
<path d="M53.1799 21.6994V10.2424H54.9706L55.0973 11.4309C55.3297 10.9766 55.6889 10.628 56.1749 10.385C56.6609 10.1315 57.1944 10.0047 57.7754 10.0047C58.5255 10.0047 59.1699 10.1737 59.7087 10.5118C60.258 10.8498 60.6859 11.32 60.9922 11.9221C61.2986 12.5243 61.4518 13.2374 61.4518 14.0614C61.4518 14.8749 61.3092 15.5985 61.0239 16.2324C60.7387 16.8662 60.3214 17.3681 59.7721 17.7378C59.2333 18.097 58.573 18.2766 57.7912 18.2766C57.2102 18.2766 56.6767 18.1657 56.1907 17.9438C55.7153 17.722 55.3562 17.4156 55.1132 17.0247V21.6994H53.1799ZM55.129 14.1565C55.129 14.6213 55.2188 15.0333 55.3984 15.3925C55.578 15.7517 55.8315 16.0369 56.159 16.2482C56.4971 16.449 56.888 16.5493 57.3317 16.5493C57.786 16.5493 58.1768 16.449 58.5043 16.2482C58.8318 16.0369 59.0801 15.7517 59.2491 15.3925C59.4182 15.0333 59.5027 14.6213 59.5027 14.1565C59.5027 13.6917 59.4182 13.2796 59.2491 12.9205C59.0801 12.5613 58.8318 12.2813 58.5043 12.0806C58.1768 11.8693 57.786 11.7637 57.3317 11.7637C56.888 11.7637 56.4971 11.864 56.159 12.0647C55.8315 12.2655 55.578 12.5454 55.3984 12.9046C55.2188 13.2638 55.129 13.6811 55.129 14.1565Z" fill="#1D0B30"/>
<path d="M64.4649 18.0706H62.5474V6.28075H64.4649V18.0706Z" fill="#1D0B30"/>
<path d="M66.0175 18.0706V10.2424H67.9507V18.0706H66.0175ZM66.9683 8.67358C66.6408 8.67358 66.3608 8.56265 66.1284 8.3408C65.9065 8.10838 65.7956 7.82843 65.7956 7.50093C65.7956 7.17344 65.9065 6.89876 66.1284 6.67691C66.3608 6.45506 66.6408 6.34413 66.9683 6.34413C67.2957 6.34413 67.5704 6.45506 67.7923 6.67691C68.0247 6.89876 68.1409 7.17344 68.1409 7.50093C68.1409 7.82843 68.0247 8.10838 67.7923 8.3408C67.5704 8.56265 67.2957 8.67358 66.9683 8.67358Z" fill="#1D0B30"/>
<path d="M68.6963 10.2424H73.6087V11.8587H68.6963V10.2424ZM73.6245 6.35998V8.00802C73.5189 8.00802 73.408 8.00802 73.2918 8.00802C73.1861 8.00802 73.0752 8.00802 72.959 8.00802C72.473 8.00802 72.1455 8.12423 71.9765 8.35664C71.818 8.58906 71.7388 8.90071 71.7388 9.29159V18.0706H69.8214V9.29159C69.8214 8.57321 69.9376 7.99746 70.17 7.56432C70.4024 7.12061 70.7299 6.7984 71.1525 6.59768C71.5751 6.38639 72.0663 6.28075 72.6262 6.28075C72.7847 6.28075 72.9484 6.28603 73.1175 6.29659C73.2971 6.30716 73.4661 6.32829 73.6245 6.35998Z" fill="#1D0B30"/>
<path d="M75.524 10.2424L78.0753 17.4684L77.0295 19.4492L73.4798 10.2424H75.524ZM73.6858 21.6994V20.0989H74.8426C75.0962 20.0989 75.318 20.0672 75.5082 20.0039C75.6983 19.951 75.8674 19.8454 76.0153 19.6869C76.1737 19.5285 76.3058 19.2961 76.4114 18.9897L79.66 10.2424H81.6566L77.8218 19.8137C77.5365 20.5321 77.1774 21.055 76.7442 21.3825C76.3111 21.71 75.7723 21.8738 75.1279 21.8738C74.8532 21.8738 74.5944 21.8579 74.3514 21.8262C74.119 21.8051 73.8971 21.7628 73.6858 21.6994Z" fill="#1D0B30"/>
<defs>
<linearGradient id="paint0_linear_470_14581" x1="5.35211" y1="3.93443" x2="24.1479" y2="22.7249" gradientUnits="userSpaceOnUse">
<stop stop-color="#A755FF"/>
<stop offset="1" stop-color="#6800D7"/>
</linearGradient>
</defs>
</svg>
