<svg width="109" height="32" viewBox="0 0 109 32" fill="none" xmlns="http://www.w3.org/2000/svg">
<rect width="32" height="32" rx="8" fill="url(#paint0_linear_117_4157)"/>
<path d="M28.0094 18.5679C25.2734 18.471 20.8691 18.579 15.6585 19.7142C11.9605 20.5171 7.43944 22.4025 4 24L18.4946 10.2177L28.0094 18.5707V18.5679Z" fill="#A27DF5"/>
<path d="M26.7637 14.653C24.05 15.0102 19.7236 15.8519 14.7771 17.837C11.2682 19.2435 7.12525 21.8543 4 24L15.9811 8L26.7637 14.653Z" fill="white"/>
<path d="M40.789 24.0941H38L43.578 8.649H46.3459L51.9238 24.0941H49.0715L47.8249 20.5234H42.0567L40.789 24.0941ZM44.6133 13.2551L42.8385 18.2415H47.0431L45.2683 13.2551C45.2119 13.0438 45.1486 12.8325 45.0781 12.6212C45.0077 12.4099 44.9654 12.2268 44.9514 12.0719C44.9232 12.2127 44.8739 12.3958 44.8035 12.6212C44.7471 12.8325 44.6837 13.0438 44.6133 13.2551Z" fill="#1D0B30"/>
<path d="M55.4241 24.0941H52.8464V13.6565H55.2128L55.5298 15.5158L55.234 15.2623C55.4452 14.7552 55.8326 14.3115 56.396 13.9312C56.9595 13.5368 57.6638 13.3396 58.5089 13.3396C59.4245 13.3396 60.171 13.579 60.7486 14.058C61.3402 14.5369 61.7486 15.1707 61.974 15.9595H61.5514C61.7064 15.1707 62.1008 14.5369 62.7347 14.058C63.3826 13.579 64.1644 13.3396 65.0799 13.3396C66.3477 13.3396 67.3196 13.6988 67.9957 14.4171C68.6718 15.1214 69.0099 16.0722 69.0099 17.2695V24.0941H66.4533V17.9456C66.4533 17.1991 66.2632 16.6357 65.8828 16.2553C65.5166 15.8609 65.0236 15.6637 64.4038 15.6637C64.0094 15.6637 63.6432 15.7553 63.3051 15.9384C62.9812 16.1215 62.7206 16.3962 62.5234 16.7624C62.3262 17.1287 62.2276 17.6005 62.2276 18.1781V24.0941H59.6499V17.9245C59.6499 17.1921 59.4667 16.6357 59.1005 16.2553C58.7343 15.875 58.2483 15.6849 57.6426 15.6849C57.2341 15.6849 56.8609 15.7764 56.5228 15.9595C56.1847 16.1286 55.9171 16.4032 55.7199 16.7836C55.5227 17.1498 55.4241 17.6146 55.4241 18.1781V24.0941Z" fill="#1D0B30"/>
<path d="M70.9065 28.9326V13.6565H73.2941L73.4631 15.2412C73.773 14.6355 74.2519 14.1706 74.8999 13.8467C75.5478 13.5086 76.2591 13.3396 77.0339 13.3396C78.034 13.3396 78.8932 13.565 79.6116 14.0157C80.344 14.4664 80.9145 15.0933 81.323 15.8962C81.7315 16.6991 81.9357 17.6498 81.9357 18.7485C81.9357 19.8331 81.7456 20.798 81.3652 21.6432C80.9849 22.4883 80.4285 23.1574 79.6961 23.6504C78.9777 24.1293 78.0973 24.3688 77.055 24.3688C76.2803 24.3688 75.5689 24.2209 74.921 23.9251C74.2871 23.6293 73.8082 23.2208 73.4842 22.6996V28.9326H70.9065ZM73.5054 18.8753C73.5054 19.4951 73.6251 20.0444 73.8645 20.5234C74.104 21.0023 74.4421 21.3826 74.8787 21.6643C75.3295 21.9319 75.8506 22.0658 76.4422 22.0658C77.0479 22.0658 77.5691 21.9319 78.0058 21.6643C78.4424 21.3826 78.7735 21.0023 78.9988 20.5234C79.2242 20.0444 79.3369 19.4951 79.3369 18.8753C79.3369 18.2555 79.2242 17.7062 78.9988 17.2273C78.7735 16.7484 78.4424 16.3751 78.0058 16.1074C77.5691 15.8257 77.0479 15.6849 76.4422 15.6849C75.8506 15.6849 75.3295 15.8187 74.8787 16.0863C74.4421 16.3539 74.104 16.7272 73.8645 17.2061C73.6251 17.6851 73.5054 18.2415 73.5054 18.8753Z" fill="#1D0B30"/>
<path d="M85.9532 24.0941H83.3966V8.37433H85.9532V24.0941Z" fill="#1D0B30"/>
<path d="M88.0233 24.0941V13.6565H90.601V24.0941H88.0233ZM89.291 11.5648C88.8543 11.5648 88.4811 11.4169 88.1712 11.1211C87.8754 10.8112 87.7275 10.4379 87.7275 10.0012C87.7275 9.56458 87.8754 9.19835 88.1712 8.90255C88.4811 8.60674 88.8543 8.45884 89.291 8.45884C89.7277 8.45884 90.0939 8.60674 90.3897 8.90255C90.6996 9.19835 90.8545 9.56458 90.8545 10.0012C90.8545 10.4379 90.6996 10.8112 90.3897 11.1211C90.0939 11.4169 89.7277 11.5648 89.291 11.5648Z" fill="#1D0B30"/>
<path d="M91.595 13.6565H98.1449V15.8116H91.595V13.6565ZM98.1661 8.47997V10.6774C98.0252 10.6774 97.8773 10.6774 97.7224 10.6774C97.5815 10.6774 97.4336 10.6774 97.2787 10.6774C96.6307 10.6774 96.194 10.8323 95.9687 11.1422C95.7574 11.4521 95.6517 11.8676 95.6517 12.3888V24.0941H93.0952V12.3888C93.0952 11.431 93.2501 10.6633 93.56 10.0858C93.8699 9.49415 94.3065 9.06453 94.87 8.7969C95.4334 8.51519 96.0884 8.37433 96.835 8.37433C97.0462 8.37433 97.2646 8.38137 97.4899 8.39546C97.7294 8.40954 97.9548 8.43771 98.1661 8.47997Z" fill="#1D0B30"/>
<path d="M100.699 13.6565L104.1 23.2912L102.706 25.9323L97.9731 13.6565H100.699ZM98.2478 28.9326V26.7986H99.7902C100.128 26.7986 100.424 26.7563 100.678 26.6718C100.931 26.6014 101.156 26.4605 101.354 26.2492C101.565 26.038 101.741 25.7281 101.882 25.3196L106.213 13.6565H108.876L103.762 26.4183C103.382 27.3761 102.903 28.0734 102.326 28.51C101.748 28.9467 101.03 29.165 100.17 29.165C99.8043 29.165 99.4592 29.1439 99.1352 29.1016C98.8253 29.0735 98.5295 29.0171 98.2478 28.9326Z" fill="#1D0B30"/>
<defs>
<linearGradient id="paint0_linear_117_4157" x1="7.13615" y1="5.2459" x2="32.1973" y2="30.2999" gradientUnits="userSpaceOnUse">
<stop stop-color="#A755FF"/>
<stop offset="1" stop-color="#6800D7"/>
</linearGradient>
</defs>
</svg>
