<svg width="12" height="13" viewBox="0 0 12 13" fill="none" xmlns="http://www.w3.org/2000/svg">
<path opacity="0.4" d="M2.38086 4.15469C2.38113 3.59444 2.94906 3.23206 3.44727 3.43497L3.5459 3.48282V3.4838L5.62012 4.67715V4.67813L7.69531 5.87833H7.69629C8.18005 6.15732 8.21023 6.82761 7.78711 7.15567L7.69629 7.21719H7.69531L5.62109 8.41641L3.5459 9.61172C3.02872 9.90977 2.38086 9.53445 2.38086 8.93985V4.15469Z" fill="url(#paint0_linear_2083_4468)" stroke="url(#paint1_linear_2083_4468)"/>
<mask id="path-2-inside-1_2083_4468" fill="white">
<path d="M10.1191 10.0101C9.91414 10.0101 9.74414 9.8401 9.74414 9.6351V3.45511C9.74414 3.25011 9.91414 3.08011 10.1191 3.08011C10.3241 3.08011 10.4941 3.25011 10.4941 3.45511V9.6351C10.4941 9.8401 10.3291 10.0101 10.1191 10.0101Z"/>
</mask>
<path d="M10.1191 10.0101C9.91414 10.0101 9.74414 9.8401 9.74414 9.6351V3.45511C9.74414 3.25011 9.91414 3.08011 10.1191 3.08011C10.3241 3.08011 10.4941 3.25011 10.4941 3.45511V9.6351C10.4941 9.8401 10.3291 10.0101 10.1191 10.0101Z" fill="url(#paint2_linear_2083_4468)"/>
<path d="M10.1191 10.0101V9.2601C10.3284 9.2601 10.4941 9.42589 10.4941 9.6351H9.74414H8.99414C8.99414 10.2543 9.49993 10.7601 10.1191 10.7601V10.0101ZM9.74414 9.6351H10.4941V3.45511H9.74414H8.99414V9.6351H9.74414ZM9.74414 3.45511H10.4941C10.4941 3.66432 10.3284 3.83011 10.1191 3.83011V3.08011V2.33011C9.49993 2.33011 8.99414 2.8359 8.99414 3.45511H9.74414ZM10.1191 3.08011V3.83011C9.90993 3.83011 9.74414 3.66432 9.74414 3.45511H10.4941H11.2441C11.2441 2.8359 10.7384 2.33011 10.1191 2.33011V3.08011ZM10.4941 3.45511H9.74414V9.6351H10.4941H11.2441V3.45511H10.4941ZM10.4941 9.6351H9.74414C9.74414 9.43242 9.90843 9.2601 10.1191 9.2601V10.0101V10.7601C10.7499 10.7601 11.2441 10.2478 11.2441 9.6351H10.4941Z" fill="url(#paint3_linear_2083_4468)" mask="url(#path-2-inside-1_2083_4468)"/>
<defs>
<linearGradient id="paint0_linear_2083_4468" x1="3.37555" y1="4.0806" x2="9.10003" y2="9.30654" gradientUnits="userSpaceOnUse">
<stop stop-color="#A755FF"/>
<stop offset="1" stop-color="#6800D7"/>
</linearGradient>
<linearGradient id="paint1_linear_2083_4468" x1="3.37555" y1="4.0806" x2="9.10003" y2="9.30654" gradientUnits="userSpaceOnUse">
<stop stop-color="#A755FF"/>
<stop offset="1" stop-color="#6800D7"/>
</linearGradient>
<linearGradient id="paint2_linear_2083_4468" x1="9.91139" y1="4.21617" x2="11.0722" y2="4.34177" gradientUnits="userSpaceOnUse">
<stop stop-color="#A755FF"/>
<stop offset="1" stop-color="#6800D7"/>
</linearGradient>
<linearGradient id="paint3_linear_2083_4468" x1="9.91139" y1="4.21617" x2="11.0722" y2="4.34177" gradientUnits="userSpaceOnUse">
<stop stop-color="#A755FF"/>
<stop offset="1" stop-color="#6800D7"/>
</linearGradient>
</defs>
</svg>
