<svg width="20" height="27" viewBox="0 0 20 27" fill="none" xmlns="http://www.w3.org/2000/svg">
<g clip-path="url(#clip0_2557_25121)">
<path d="M2.94816 0.274414H12.399C12.4004 2.75178 12.4053 5.22983 12.399 7.70719C12.399 7.95251 12.4653 8.03038 12.72 8.02901C15.1197 8.02005 17.5194 8.02349 19.9191 8.0228C20.0419 8.11377 19.9902 8.2447 19.9902 8.3584C19.993 13.2732 19.9923 18.1886 19.9923 23.1034C19.9923 23.2322 19.993 23.3618 19.9819 23.4906C19.8563 24.915 19.1229 25.906 17.8034 26.4821C17.5424 26.5958 17.2563 26.6185 16.9946 26.7253H2.94816C2.91117 26.6433 2.82744 26.6702 2.76534 26.6557C2.37318 26.5648 1.99916 26.4311 1.66004 26.214C0.531017 25.4918 -0.000697102 24.4588 6.85881e-07 23.1316C0.0048852 16.7105 0.00209405 10.29 0.00279184 3.86883C0.00279184 3.74823 0.0048852 3.62764 0.0125609 3.50773C0.100482 2.03303 1.12553 0.782291 2.56228 0.392252C2.69207 0.357108 2.83651 0.368133 2.94816 0.274414ZM8.15365 17.5794C8.15365 18.3195 8.15226 19.0596 8.15505 19.7997C8.15505 19.8921 8.109 20.0168 8.28972 20.0113C8.99309 19.9872 9.69995 20.0664 10.3998 19.9644C11.6705 19.7798 12.4081 18.9356 12.4409 17.6511C12.473 16.3852 11.7773 15.4983 10.5366 15.2509C9.82276 15.1083 9.09706 15.2027 8.37695 15.1724C8.18366 15.1641 8.14877 15.2406 8.15017 15.4108C8.15784 16.1337 8.15365 16.8565 8.15365 17.5794ZM3.87133 17.5939C3.87133 18.3333 3.87552 19.0734 3.86784 19.8128C3.86644 19.9713 3.91041 20.021 4.07229 20.0134C4.35001 19.9996 4.62913 19.9982 4.90615 20.0134C5.08548 20.0237 5.12595 19.9582 5.12177 19.7949C5.112 19.3994 5.11688 19.0038 5.11897 18.6083C5.12107 18.2306 5.08269 18.2754 5.44763 18.2699C5.69953 18.2665 5.95213 18.2713 6.20334 18.2534C7.01766 18.1969 7.58426 17.6256 7.6352 16.8193C7.68614 16.0131 7.1928 15.3722 6.39314 15.2199C6.2152 15.1861 6.03028 15.1786 5.84816 15.1772C5.26551 15.1717 4.68286 15.182 4.1009 15.171C3.92017 15.1675 3.86435 15.2178 3.86714 15.3998C3.87691 16.1309 3.87133 16.8627 3.87133 17.5939ZM13.0703 17.587C13.0703 18.3182 13.0759 19.05 13.0661 19.7811C13.064 19.9541 13.0989 20.0258 13.2901 20.0141C13.5587 19.9968 13.8295 19.9968 14.0981 20.0141C14.2921 20.0265 14.327 19.9507 14.3228 19.7784C14.3123 19.2712 14.3263 18.7626 14.3151 18.2554C14.3109 18.0839 14.3654 18.0384 14.5335 18.0425C14.9941 18.0535 15.4553 18.0425 15.9158 18.0487C16.0456 18.0501 16.1049 18.0205 16.0987 17.8778C16.0882 17.6463 16.0889 17.4127 16.0987 17.1811C16.1043 17.0454 16.0568 17.0013 15.9207 17.004C15.5642 17.0116 15.2076 17.0061 14.851 17.0061C14.313 17.0061 14.3207 17.0061 14.3151 16.461C14.313 16.2846 14.3549 16.226 14.5426 16.2295C15.1427 16.2419 15.7428 16.2295 16.3429 16.237C16.4873 16.2384 16.5453 16.2019 16.5383 16.051C16.5271 15.8277 16.5264 15.603 16.5383 15.3798C16.5466 15.224 16.4985 15.171 16.3345 15.1717C15.3171 15.1786 14.2998 15.1786 13.2817 15.1717C13.1066 15.1703 13.064 15.2268 13.0661 15.3922C13.0745 16.1233 13.0696 16.8552 13.0696 17.5863L13.0703 17.587Z" fill="#D14343"/>
<path d="M12.4512 0.274414C13.1734 1.02968 13.8922 1.7884 14.6186 2.54022C16.3498 4.33053 18.0852 6.11741 19.8192 7.90565C19.8548 7.94218 19.8855 7.98421 19.9183 8.02349C17.5186 8.02349 15.1189 8.02005 12.7192 8.0297C12.4645 8.03038 12.3975 7.9532 12.3982 7.70788C12.4052 5.23052 12.4003 2.75247 12.3982 0.275103C12.4156 0.275103 12.4331 0.275103 12.4505 0.275103L12.4512 0.274414Z" fill="#D96262"/>
<path d="M9.37118 17.5804C9.37118 17.1945 9.37676 16.8079 9.36839 16.422C9.3649 16.2801 9.40049 16.218 9.554 16.2325C9.70891 16.247 9.86731 16.2298 10.0215 16.247C10.7702 16.3331 11.1826 16.8038 11.191 17.5728C11.2001 18.3633 10.8023 18.8339 10.0397 18.9359C9.59401 18.9956 9.37118 18.81 9.37118 18.3791C9.37118 18.1131 9.37118 17.8471 9.37118 17.5811V17.5804Z" fill="#D14343"/>
<path d="M5.11971 16.7286C5.11971 16.3992 5.28718 16.2347 5.62212 16.2352C5.72609 16.2352 5.83145 16.2311 5.93473 16.2414C6.21175 16.2696 6.38619 16.4536 6.39247 16.7127C6.39875 16.9746 6.23826 17.1779 5.96124 17.2068C5.7205 17.2317 5.47558 17.2151 5.23205 17.2206C5.13436 17.2227 5.11831 17.1676 5.11971 17.0897C5.1218 16.9691 5.11971 16.8492 5.11971 16.7286Z" fill="#D14343"/>
</g>
<defs>
<clipPath id="clip0_2557_25121">
<rect width="20" height="26.4516" fill="white" transform="translate(0 0.274414)"/>
</clipPath>
</defs>
</svg>
