<svg width="24" height="25" viewBox="0 0 24 25" fill="none" xmlns="http://www.w3.org/2000/svg">
<path d="M12 9.25C13.7939 9.25 15.25 10.7061 15.25 12.5C15.25 14.2939 13.7939 15.75 12 15.75C10.2061 15.75 8.75 14.2939 8.75 12.5C8.75 10.7061 10.2061 9.25 12 9.25ZM12 9.75C10.4839 9.75 9.25 10.9839 9.25 12.5C9.25 14.0161 10.4839 15.25 12 15.25C13.5161 15.25 14.75 14.0161 14.75 12.5C14.75 10.9839 13.5161 9.75 12 9.75Z" fill="url(#paint0_linear_4007_8976)" stroke="url(#paint1_linear_4007_8976)"/>
<path d="M7.85547 3.07031C8.74249 2.54466 9.92737 2.84748 10.4697 3.76465L10.4717 3.76758L10.5908 3.96777C10.9215 4.53623 11.4029 4.97542 12.0146 4.97559C12.6289 4.97559 13.1116 4.53266 13.4424 3.96094L13.5508 3.77246L13.5518 3.77344C14.0939 2.84858 15.2766 2.54488 16.1738 3.08008L16.1807 3.08398L17.9004 4.07324L17.9014 4.07422C18.3931 4.35646 18.7498 4.81451 18.9062 5.37598V5.37695C19.0539 5.94348 18.9793 6.51851 18.6963 7.01172L18.6953 7.0127C18.5302 7.30304 18.4114 7.60287 18.3643 7.89258C18.3174 8.18038 18.3367 8.49653 18.499 8.77344C18.8091 9.302 19.4821 9.48047 20.1201 9.48047C21.3038 9.48053 22.2693 10.4462 22.2695 11.6299V13.3906C22.2693 14.5743 21.3038 15.54 20.1201 15.54C19.4821 15.54 18.8092 15.7185 18.499 16.2471C18.1861 16.7809 18.3749 17.459 18.6963 18.0078V18.0088C18.9821 18.5069 19.0608 19.0895 18.9082 19.6357L18.9062 19.6445C18.7605 20.2029 18.4066 20.6618 17.9043 20.9453L17.9014 20.9463L16.1777 21.9326C15.8676 22.104 15.5405 22.1904 15.21 22.1904C15.0498 22.1904 14.8823 22.1669 14.7041 22.125C14.2099 21.9873 13.8003 21.6784 13.5391 21.2432L13.4189 21.043C13.0883 20.4744 12.607 20.0352 11.9951 20.0352C11.4576 20.0352 11.0206 20.374 10.6982 20.8418L10.5674 21.0498L10.459 21.2363C10.1938 21.6863 9.7817 22.0004 9.29492 22.126L9.29004 22.1279C8.78978 22.2629 8.27976 22.1908 7.84766 21.9316L7.83984 21.9268L6.11914 20.9365L5.94043 20.8223C5.54062 20.5377 5.25109 20.1252 5.11426 19.6338C4.9665 19.0672 5.04026 18.4923 5.32324 17.999L5.32422 17.9971C5.48929 17.7068 5.60909 17.4078 5.65625 17.1182C5.7031 16.8303 5.68383 16.5142 5.52148 16.2373C5.21152 15.7086 4.53841 15.5303 3.90039 15.5303C2.71653 15.5303 1.75 14.5637 1.75 13.3799V11.6201C1.75009 10.4363 2.71659 9.4707 3.90039 9.4707C4.53843 9.47063 5.21153 9.29145 5.52148 8.7627C5.79589 8.29416 5.68425 7.71471 5.43555 7.20898L5.32129 6.99707C5.04011 6.50436 4.96673 5.9218 5.11328 5.36816L5.11426 5.36621C5.26003 4.80782 5.61392 4.34898 6.11621 4.06543L6.11816 4.06445L7.84863 3.07422L7.85547 3.07031ZM15.9092 3.50195C15.2333 3.09327 14.3567 3.3347 13.96 4.00586L13.957 4.00977L13.8477 4.2002L13.8467 4.20117C13.3373 5.08571 12.6504 5.4999 11.9902 5.5C11.3712 5.5 10.7281 5.13603 10.2305 4.36133L10.1338 4.20117L10.0283 4.00977L10.0244 4.00195L10.0195 3.99414C9.63028 3.34064 8.76777 3.10941 8.09961 3.49707L6.37012 4.49707C6 4.7106 5.71241 5.06744 5.59668 5.50098C5.48351 5.92537 5.53901 6.37235 5.75684 6.75L5.75781 6.75195C6.26568 7.62527 6.28321 8.44017 5.95605 9.0127C5.63152 9.58035 4.92121 9.9706 3.90039 9.9707C2.98431 9.9707 2.25009 10.7041 2.25 11.6201V13.3799C2.25 14.2832 2.98142 15.0303 3.90039 15.0303C4.92138 15.0304 5.63159 15.4205 5.95605 15.9883C6.28323 16.5609 6.2658 17.3756 5.75781 18.249L5.75684 18.25C5.53897 18.6276 5.48354 19.0746 5.59668 19.499C5.71213 19.932 5.98735 20.2743 6.34766 20.4961L6.36133 20.5039L8.0918 21.4941V21.4932C8.42209 21.6921 8.80681 21.7343 9.15527 21.6436C9.53526 21.5473 9.83654 21.2982 10.0254 20.9932L10.0293 20.9873L10.0322 20.9805L10.1416 20.791L10.1426 20.792C10.6538 19.913 11.3418 19.4902 12 19.4902C12.6603 19.4902 13.347 19.9052 13.8564 20.79L13.8574 20.791L13.9658 20.9775V20.9785C14.1552 21.3098 14.4701 21.5435 14.8389 21.6357C15.192 21.724 15.5667 21.6833 15.8896 21.4922L15.8906 21.4932L17.6201 20.4932C17.9902 20.2796 18.2779 19.9228 18.3936 19.4893C18.5067 19.0648 18.4513 18.6179 18.2334 18.2402L18.2324 18.2393L18.1426 18.0762C17.7232 17.2649 17.7275 16.5153 18.0342 15.9785C18.3587 15.4107 19.0687 15.0205 20.0898 15.0205C21.006 15.0205 21.7402 14.2863 21.7402 13.3701V11.6104C21.7402 10.707 21.0088 9.95996 20.0898 9.95996C19.0687 9.95992 18.3587 9.56981 18.0342 9.00195C17.7071 8.42939 17.7245 7.61452 18.2324 6.74121L18.2334 6.74023C18.4513 6.36257 18.5067 5.91563 18.3936 5.49121C18.2781 5.05825 18.002 4.71592 17.6416 4.49414L17.6357 4.49023L17.6279 4.48633L15.9082 3.50195H15.9092Z" fill="url(#paint2_linear_4007_8976)" stroke="url(#paint3_linear_4007_8976)"/>
<defs>
<linearGradient id="paint0_linear_4007_8976" x1="9.92253" y1="9.97951" x2="15.7962" y2="15.8515" gradientUnits="userSpaceOnUse">
<stop stop-color="#A755FF"/>
<stop offset="1" stop-color="#6800D7"/>
</linearGradient>
<linearGradient id="paint1_linear_4007_8976" x1="9.92253" y1="9.97951" x2="15.7962" y2="15.8515" gradientUnits="userSpaceOnUse">
<stop stop-color="#A755FF"/>
<stop offset="1" stop-color="#6800D7"/>
</linearGradient>
<linearGradient id="paint2_linear_4007_8976" x1="6.04906" y1="5.65379" x2="21.988" y2="22.478" gradientUnits="userSpaceOnUse">
<stop stop-color="#A755FF"/>
<stop offset="1" stop-color="#6800D7"/>
</linearGradient>
<linearGradient id="paint3_linear_4007_8976" x1="6.04906" y1="5.65379" x2="21.988" y2="22.478" gradientUnits="userSpaceOnUse">
<stop stop-color="#A755FF"/>
<stop offset="1" stop-color="#6800D7"/>
</linearGradient>
</defs>
</svg>
