<svg width="48" height="49" viewBox="0 0 48 49" fill="none" xmlns="http://www.w3.org/2000/svg">
<g id="vuesax/bulk/shop">
<g id="shop">
<path id="Vector" opacity="0.4" d="M42.7398 22.8251V34.8051C42.7398 40.3251 38.2598 44.8051 32.7398 44.8051H15.2598C9.73977 44.8051 5.25977 40.3251 5.25977 34.8051V22.9651C6.77977 24.6051 8.93977 25.5451 11.2798 25.5451C13.7998 25.5451 16.2198 24.2851 17.7398 22.2651C19.0998 24.2851 21.4198 25.5451 23.9998 25.5451C26.5598 25.5451 28.8398 24.3451 30.2198 22.3451C31.7598 24.3251 34.1398 25.5451 36.6198 25.5451C39.0398 25.5451 41.2398 24.5651 42.7398 22.8251Z" fill="url(#paint0_linear_2025_4365)"/>
<path id="Vector_2" d="M29.9807 2.5451H17.9807L16.5007 17.2651C16.3807 18.6251 16.5807 19.9051 17.0807 21.0651C18.2407 23.7851 20.9607 25.5451 24.0007 25.5451C27.0807 25.5451 29.7407 23.8251 30.9407 21.0851C31.3007 20.2251 31.5207 19.2251 31.5407 18.2051V17.8251L29.9807 2.5451Z" fill="url(#paint1_linear_2025_4365)"/>
<path id="Vector_3" opacity="0.6" d="M44.7195 16.5851L44.1395 11.0451C43.2995 5.00511 40.5595 2.5451 34.6995 2.5451H27.0195L28.4995 17.5451C28.5195 17.7451 28.5395 17.9651 28.5395 18.3451C28.6595 19.3851 28.9795 20.3451 29.4595 21.2051C30.8995 23.8451 33.6995 25.5451 36.6195 25.5451C39.2795 25.5451 41.6795 24.3651 43.1795 22.2851C44.3795 20.6851 44.9195 18.6651 44.7195 16.5851Z" fill="url(#paint2_linear_2025_4365)"/>
<path id="Vector_4" opacity="0.6" d="M13.1793 2.5451C7.2993 2.5451 4.5793 5.00511 3.7193 11.1051L3.1793 16.6051C2.9793 18.7451 3.5593 20.8251 4.8193 22.4451C6.3393 24.4251 8.6793 25.5451 11.2793 25.5451C14.1993 25.5451 16.9993 23.8451 18.4193 21.2451C18.9393 20.3451 19.2793 19.3051 19.3793 18.2251L20.9393 2.5651H13.1793V2.5451Z" fill="url(#paint3_linear_2025_4365)"/>
<path id="Vector_5" d="M22.7002 33.3651C20.1602 33.6251 18.2402 35.7851 18.2402 38.3451V44.8051H29.7402V39.0451C29.7602 34.8651 27.3002 32.8851 22.7002 33.3651Z" fill="url(#paint4_linear_2025_4365)"/>
</g>
</g>
<defs>
<linearGradient id="paint0_linear_2025_4365" x1="13.618" y1="25.9602" x2="29.2126" y2="51.884" gradientUnits="userSpaceOnUse">
<stop stop-color="#A755FF"/>
<stop offset="1" stop-color="#6800D7"/>
</linearGradient>
<linearGradient id="paint1_linear_2025_4365" x1="19.8283" y1="6.3156" x2="36.3427" y2="17.1358" gradientUnits="userSpaceOnUse">
<stop stop-color="#A755FF"/>
<stop offset="1" stop-color="#6800D7"/>
</linearGradient>
<linearGradient id="paint2_linear_2025_4365" x1="30.9758" y1="6.3156" x2="48.3967" y2="19.7492" gradientUnits="userSpaceOnUse">
<stop stop-color="#A755FF"/>
<stop offset="1" stop-color="#6800D7"/>
</linearGradient>
<linearGradient id="paint3_linear_2025_4365" x1="7.10981" y1="6.3156" x2="24.5451" y2="19.8042" gradientUnits="userSpaceOnUse">
<stop stop-color="#A755FF"/>
<stop offset="1" stop-color="#6800D7"/>
</linearGradient>
<linearGradient id="paint4_linear_2025_4365" x1="20.8048" y1="35.1816" x2="29.8194" y2="44.1855" gradientUnits="userSpaceOnUse">
<stop stop-color="#A755FF"/>
<stop offset="1" stop-color="#6800D7"/>
</linearGradient>
</defs>
</svg>
