<svg width="32" height="33" viewBox="0 0 32 33" fill="none" xmlns="http://www.w3.org/2000/svg">
<g id="vuesax/bulk/shop">
<g id="shop">
<path id="Vector" opacity="0.4" d="M28.4925 15.7318V23.7184C28.4925 27.3984 25.5059 30.3851 21.8259 30.3851H10.1725C6.49253 30.3851 3.50586 27.3984 3.50586 23.7184V15.8251C4.51919 16.9184 5.95919 17.5451 7.51919 17.5451C9.19919 17.5451 10.8125 16.7051 11.8259 15.3584C12.7325 16.7051 14.2792 17.5451 15.9992 17.5451C17.7059 17.5451 19.2259 16.7451 20.1459 15.4118C21.1725 16.7318 22.7592 17.5451 24.4125 17.5451C26.0259 17.5451 27.4925 16.8918 28.4925 15.7318Z" fill="url(#paint0_linear_2083_9358)"/>
<path id="Vector_2" d="M19.9858 2.21176H11.9858L10.9992 12.0251C10.9192 12.9318 11.0525 13.7851 11.3858 14.5584C12.1592 16.3718 13.9725 17.5451 15.9992 17.5451C18.0525 17.5451 19.8258 16.3984 20.6258 14.5718C20.8658 13.9984 21.0125 13.3318 21.0258 12.6518V12.3984L19.9858 2.21176Z" fill="url(#paint1_linear_2083_9358)"/>
<path id="Vector_3" opacity="0.6" d="M29.8137 11.5718L29.427 7.87843C28.867 3.85176 27.0403 2.21176 23.1337 2.21176H18.0137L19.0003 12.2118C19.0137 12.3451 19.027 12.4918 19.027 12.7451C19.107 13.4384 19.3203 14.0784 19.6403 14.6518C20.6003 16.4118 22.467 17.5451 24.4137 17.5451C26.187 17.5451 27.787 16.7584 28.787 15.3718C29.587 14.3051 29.947 12.9584 29.8137 11.5718Z" fill="url(#paint2_linear_2083_9358)"/>
<path id="Vector_4" opacity="0.6" d="M8.7862 2.21176C4.8662 2.21176 3.05287 3.85176 2.47953 7.91843L2.11953 11.5851C1.9862 13.0118 2.37287 14.3984 3.21287 15.4784C4.2262 16.7984 5.7862 17.5451 7.51953 17.5451C9.4662 17.5451 11.3329 16.4118 12.2795 14.6784C12.6262 14.0784 12.8529 13.3851 12.9195 12.6651L13.9595 2.22509H8.7862V2.21176Z" fill="url(#paint3_linear_2083_9358)"/>
<path id="Vector_5" d="M15.1335 22.7584C13.4402 22.9318 12.1602 24.3718 12.1602 26.0784V30.3851H19.8268V26.5451C19.8402 23.7584 18.2002 22.4384 15.1335 22.7584Z" fill="url(#paint4_linear_2083_9358)"/>
</g>
</g>
<defs>
<linearGradient id="paint0_linear_2083_9358" x1="9.078" y1="17.8218" x2="19.4744" y2="35.1043" gradientUnits="userSpaceOnUse">
<stop stop-color="#A755FF"/>
<stop offset="1" stop-color="#6800D7"/>
</linearGradient>
<linearGradient id="paint1_linear_2083_9358" x1="13.2176" y1="4.72542" x2="24.2272" y2="11.9389" gradientUnits="userSpaceOnUse">
<stop stop-color="#A755FF"/>
<stop offset="1" stop-color="#6800D7"/>
</linearGradient>
<linearGradient id="paint2_linear_2083_9358" x1="20.6512" y1="4.72542" x2="32.2651" y2="13.6811" gradientUnits="userSpaceOnUse">
<stop stop-color="#A755FF"/>
<stop offset="1" stop-color="#6800D7"/>
</linearGradient>
<linearGradient id="paint3_linear_2083_9358" x1="4.73988" y1="4.72542" x2="16.3634" y2="13.7178" gradientUnits="userSpaceOnUse">
<stop stop-color="#A755FF"/>
<stop offset="1" stop-color="#6800D7"/>
</linearGradient>
<linearGradient id="paint4_linear_2083_9358" x1="13.8699" y1="23.9694" x2="19.8796" y2="29.972" gradientUnits="userSpaceOnUse">
<stop stop-color="#A755FF"/>
<stop offset="1" stop-color="#6800D7"/>
</linearGradient>
</defs>
</svg>
