<svg width="128" height="200" viewBox="0 0 128 200" fill="none" xmlns="http://www.w3.org/2000/svg">
<path d="M15.0269 191.805H10.8434L19.2104 168.637H23.3622L31.7291 191.805H27.4506L25.5807 186.449H16.9285L15.0269 191.805ZM20.7633 175.546L18.1011 183.026H24.408L21.7458 175.546C21.6613 175.229 21.5662 174.912 21.4606 174.595C21.3549 174.278 21.2915 174.004 21.2704 173.771C21.2282 173.983 21.1542 174.257 21.0486 174.595C20.9641 174.912 20.869 175.229 20.7633 175.546Z" fill="#1D0B30"/>
<path d="M36.9795 191.805H33.113V176.148H36.6626L37.138 178.937L36.6943 178.557C37.0112 177.796 37.5923 177.131 38.4374 176.56C39.2826 175.969 40.339 175.673 41.6067 175.673C42.9801 175.673 44.0999 176.032 44.9662 176.75C45.8536 177.469 46.4664 178.42 46.8044 179.603H46.1706C46.403 178.42 46.9946 177.469 47.9454 176.75C48.9173 176.032 50.0899 175.673 51.4633 175.673C53.3649 175.673 54.8228 176.212 55.837 177.289C56.8511 178.346 57.3582 179.772 57.3582 181.568V191.805H53.5234V182.582C53.5234 181.462 53.2381 180.617 52.6676 180.047C52.1183 179.455 51.3788 179.159 50.4491 179.159C49.8575 179.159 49.3082 179.296 48.8011 179.571C48.3151 179.846 47.9242 180.258 47.6284 180.807C47.3326 181.356 47.1847 182.064 47.1847 182.931V191.805H43.3182V182.55C43.3182 181.452 43.0435 180.617 42.4942 180.047C41.9448 179.476 41.2159 179.191 40.3073 179.191C39.6946 179.191 39.1347 179.328 38.6276 179.603C38.1205 179.856 37.7191 180.268 37.4233 180.839C37.1275 181.388 36.9795 182.085 36.9795 182.931V191.805Z" fill="#1D0B30"/>
<path d="M60.2032 199.062V176.148H63.7845L64.038 178.525C64.5029 177.617 65.2212 176.919 66.1932 176.433C67.1651 175.926 68.2321 175.673 69.3942 175.673C70.8943 175.673 72.1832 176.011 73.2607 176.687C74.3594 177.363 75.2151 178.303 75.8279 179.508C76.4406 180.712 76.747 182.138 76.747 183.786C76.747 185.413 76.4617 186.861 75.8913 188.128C75.3208 189.396 74.4862 190.4 73.3875 191.139C72.3099 191.857 70.9894 192.217 69.4259 192.217C68.2638 192.217 67.1968 191.995 66.2249 191.551C65.2741 191.107 64.5557 190.495 64.0697 189.713V199.062H60.2032ZM64.1014 183.976C64.1014 184.906 64.281 185.73 64.6402 186.449C64.9994 187.167 65.5065 187.737 66.1615 188.16C66.8376 188.561 67.6194 188.762 68.5068 188.762C69.4153 188.762 70.1971 188.561 70.8521 188.16C71.507 187.737 72.0036 187.167 72.3416 186.449C72.6797 185.73 72.8487 184.906 72.8487 183.976C72.8487 183.047 72.6797 182.223 72.3416 181.504C72.0036 180.786 71.507 180.226 70.8521 179.825C70.1971 179.402 69.4153 179.191 68.5068 179.191C67.6194 179.191 66.8376 179.392 66.1615 179.793C65.5065 180.194 64.9994 180.754 64.6402 181.473C64.281 182.191 64.1014 183.026 64.1014 183.976Z" fill="#1D0B30"/>
<path d="M82.7731 191.805H78.9383V168.225H82.7731V191.805Z" fill="#1D0B30"/>
<path d="M85.8783 191.805V176.148H89.7449V191.805H85.8783ZM87.7799 173.011C87.1249 173.011 86.565 172.789 86.1002 172.345C85.6564 171.88 85.4346 171.32 85.4346 170.665C85.4346 170.01 85.6564 169.461 86.1002 169.017C86.565 168.574 87.1249 168.352 87.7799 168.352C88.4349 168.352 88.9842 168.574 89.4279 169.017C89.8928 169.461 90.1252 170.01 90.1252 170.665C90.1252 171.32 89.8928 171.88 89.4279 172.345C88.9842 172.789 88.4349 173.011 87.7799 173.011Z" fill="#1D0B30"/>
<path d="M91.2359 176.148H101.061V179.381H91.2359V176.148ZM101.092 168.383V171.68C100.881 171.68 100.659 171.68 100.427 171.68C100.216 171.68 99.9938 171.68 99.7614 171.68C98.7894 171.68 98.1345 171.912 97.7964 172.377C97.4795 172.842 97.321 173.465 97.321 174.247V191.805H93.4861V174.247C93.4861 172.81 93.7186 171.658 94.1834 170.792C94.6482 169.905 95.3032 169.26 96.1484 168.859C96.9935 168.436 97.976 168.225 99.0958 168.225C99.4127 168.225 99.7402 168.236 100.078 168.257C100.437 168.278 100.776 168.32 101.092 168.383Z" fill="#1D0B30"/>
<path d="M104.891 176.148L109.994 190.6L107.902 194.562L100.803 176.148H104.891ZM101.215 199.062V195.861H103.529C104.036 195.861 104.479 195.798 104.86 195.671C105.24 195.566 105.578 195.354 105.874 195.037C106.191 194.72 106.455 194.256 106.666 193.643L113.163 176.148H117.157L109.487 195.291C108.916 196.728 108.198 197.774 107.332 198.429C106.466 199.084 105.388 199.411 104.099 199.411C103.55 199.411 103.032 199.379 102.546 199.316C102.081 199.274 101.638 199.189 101.215 199.062Z" fill="#1D0B30"/>
<rect y="0.5" width="128" height="128" rx="32" fill="url(#paint0_linear_2041_8843)"/>
<path d="M112.038 74.7717C101.094 74.3841 83.4765 74.816 62.6341 79.3566C47.842 82.5682 29.7578 90.11 16 96.5L73.9784 41.3708L112.038 74.7828V74.7717Z" fill="#A27DF5"/>
<path d="M107.055 59.1122C96.1999 60.5408 78.8943 63.9075 59.1084 71.8479C45.0726 77.4738 28.501 87.9171 16 96.4999L63.9242 32.5L107.055 59.1122Z" fill="white"/>
<defs>
<linearGradient id="paint0_linear_2041_8843" x1="28.5446" y1="21.4836" x2="128.789" y2="121.7" gradientUnits="userSpaceOnUse">
<stop stop-color="#A755FF"/>
<stop offset="1" stop-color="#6800D7"/>
</linearGradient>
</defs>
</svg>
