<svg width="128" height="145" viewBox="0 0 128 145" fill="none" xmlns="http://www.w3.org/2000/svg">
<rect x="16" y="0.850342" width="96" height="96" rx="24" fill="url(#paint0_linear_470_14588)"/>
<path d="M100.028 56.5541C91.8202 56.2634 78.6074 56.5874 62.9756 59.9928C51.8815 62.4015 38.3183 68.0578 28 72.8504L71.4838 31.5035L100.028 56.5625V56.5541Z" fill="#A27DF5"/>
<path d="M96.2912 44.8095C88.1499 45.8809 75.1707 48.4059 60.3313 54.3613C49.8045 58.5807 37.3758 66.4132 28 72.8503L63.9432 24.8503L96.2912 44.8095Z" fill="white"/>
<path d="M27.2702 138.535H24.1326L30.4078 121.159H33.5217L39.7969 138.535H36.588L35.1855 134.518H28.6964L27.2702 138.535ZM31.5725 126.341L29.5759 131.951H34.3061L32.3094 126.341C32.246 126.103 32.1747 125.866 32.0955 125.628C32.0162 125.39 31.9687 125.184 31.9528 125.01C31.9212 125.169 31.8657 125.375 31.7865 125.628C31.7231 125.866 31.6518 126.103 31.5725 126.341Z" fill="#1D0B30"/>
<path d="M43.7347 138.535H40.8348V126.793H43.497L43.8535 128.885L43.5208 128.599C43.7585 128.029 44.1942 127.53 44.8281 127.102C45.462 126.658 46.2543 126.436 47.2051 126.436C48.2351 126.436 49.075 126.706 49.7247 127.244C50.3902 127.783 50.8498 128.496 51.1033 129.384H50.6279C50.8023 128.496 51.246 127.783 51.9591 127.244C52.688 126.706 53.5675 126.436 54.5975 126.436C56.0237 126.436 57.1171 126.84 57.8777 127.649C58.6384 128.441 59.0187 129.51 59.0187 130.857V138.535H56.1425V131.618C56.1425 130.778 55.9286 130.144 55.5008 129.716C55.0888 129.273 54.5341 129.051 53.8369 129.051C53.3932 129.051 52.9812 129.154 52.6008 129.36C52.2364 129.566 51.9432 129.875 51.7214 130.287C51.4995 130.699 51.3886 131.23 51.3886 131.88V138.535H48.4887V131.594C48.4887 130.77 48.2827 130.144 47.8706 129.716C47.4586 129.289 46.9119 129.075 46.2305 129.075C45.771 129.075 45.351 129.178 44.9707 129.384C44.5904 129.574 44.2893 129.883 44.0675 130.311C43.8456 130.723 43.7347 131.246 43.7347 131.88V138.535Z" fill="#1D0B30"/>
<path d="M61.1524 143.978V126.793H63.8384L64.0286 128.576C64.3772 127.894 64.916 127.371 65.6449 127.007C66.3738 126.626 67.1741 126.436 68.0457 126.436C69.1708 126.436 70.1374 126.69 70.9456 127.197C71.7696 127.704 72.4114 128.409 72.8709 129.312C73.3305 130.216 73.5603 131.285 73.5603 132.521C73.5603 133.742 73.3463 134.827 72.9185 135.778C72.4906 136.729 71.8647 137.481 71.0407 138.036C70.2325 138.575 69.2421 138.844 68.0694 138.844C67.1979 138.844 66.3976 138.678 65.6687 138.345C64.9556 138.012 64.4168 137.553 64.0523 136.966V143.978H61.1524ZM64.0761 132.664C64.0761 133.361 64.2108 133.979 64.4802 134.518C64.7496 135.057 65.1299 135.485 65.6211 135.802C66.1282 136.103 66.7146 136.253 67.3801 136.253C68.0615 136.253 68.6478 136.103 69.1391 135.802C69.6303 135.485 70.0027 135.057 70.2563 134.518C70.5098 133.979 70.6366 133.361 70.6366 132.664C70.6366 131.967 70.5098 131.349 70.2563 130.81C70.0027 130.271 69.6303 129.851 69.1391 129.55C68.6478 129.233 68.0615 129.075 67.3801 129.075C66.7146 129.075 66.1282 129.225 65.6211 129.526C65.1299 129.827 64.7496 130.247 64.4802 130.786C64.2108 131.325 64.0761 131.951 64.0761 132.664Z" fill="#1D0B30"/>
<path d="M78.0799 138.535H75.2037V120.85H78.0799V138.535Z" fill="#1D0B30"/>
<path d="M80.4088 138.535V126.793H83.3087V138.535H80.4088ZM81.8349 124.44C81.3437 124.44 80.9238 124.273 80.5751 123.94C80.2424 123.592 80.076 123.172 80.076 122.681C80.076 122.189 80.2424 121.777 80.5751 121.445C80.9238 121.112 81.3437 120.945 81.8349 120.945C82.3262 120.945 82.7382 121.112 83.071 121.445C83.4196 121.777 83.5939 122.189 83.5939 122.681C83.5939 123.172 83.4196 123.592 83.071 123.94C82.7382 124.273 82.3262 124.44 81.8349 124.44Z" fill="#1D0B30"/>
<path d="M84.427 126.793H91.7956V129.217H84.427V126.793ZM91.8194 120.969V123.441C91.6609 123.441 91.4945 123.441 91.3202 123.441C91.1618 123.441 90.9954 123.441 90.8211 123.441C90.0921 123.441 89.6009 123.616 89.3473 123.964C89.1096 124.313 88.9908 124.78 88.9908 125.367V138.535H86.1146V125.367C86.1146 124.289 86.2889 123.425 86.6376 122.776C86.9862 122.11 87.4774 121.627 88.1113 121.326C88.7452 121.009 89.482 120.85 90.3219 120.85C90.5596 120.85 90.8052 120.858 91.0588 120.874C91.3281 120.89 91.5817 120.922 91.8194 120.969Z" fill="#1D0B30"/>
<path d="M94.6686 126.793L98.4956 137.632L96.9268 140.603L91.6023 126.793H94.6686ZM91.9113 143.978V141.578H93.6465C94.0268 141.578 94.3596 141.53 94.6448 141.435C94.9301 141.356 95.1836 141.197 95.4055 140.96C95.6432 140.722 95.8413 140.373 95.9997 139.914L100.873 126.793H103.868L98.1152 141.15C97.6874 142.227 97.1486 143.012 96.4989 143.503C95.8492 143.994 95.041 144.24 94.0744 144.24C93.6624 144.24 93.2741 144.216 92.9097 144.169C92.561 144.137 92.2282 144.073 91.9113 143.978Z" fill="#1D0B30"/>
<defs>
<linearGradient id="paint0_linear_470_14588" x1="37.4084" y1="16.5881" x2="112.592" y2="91.7501" gradientUnits="userSpaceOnUse">
<stop stop-color="#A755FF"/>
<stop offset="1" stop-color="#6800D7"/>
</linearGradient>
</defs>
</svg>
