<svg width="41" height="24" viewBox="0 0 41 24" fill="none" xmlns="http://www.w3.org/2000/svg">
<g clip-path="url(#clip0_2648_27005)">
<path fill-rule="evenodd" clip-rule="evenodd" d="M40.1531 12.908C40.1531 10.0883 38.7873 7.86328 36.1768 7.86328C33.5553 7.86328 31.9692 10.0883 31.9692 12.886C31.9692 16.2014 33.8417 17.8756 36.5293 17.8756C37.84 17.8756 38.8313 17.5782 39.5803 17.1597V14.9567C38.8313 15.3312 37.9722 15.5626 36.8817 15.5626C35.8133 15.5626 34.8661 15.1881 34.7449 13.8883H40.1311C40.1311 13.7451 40.1531 13.1724 40.1531 12.908ZM34.7119 11.8616C34.7119 10.617 35.4719 10.0993 36.1658 10.0993C36.8377 10.0993 37.5536 10.617 37.5536 11.8616H34.7119Z" fill="#635BFF"/>
<path fill-rule="evenodd" clip-rule="evenodd" d="M27.7175 7.86328C26.638 7.86328 25.9441 8.36998 25.5586 8.72243L25.4154 8.03953H22.9922V20.8826L25.7458 20.2989L25.7568 17.1817C26.1534 17.4681 26.7372 17.8756 27.7064 17.8756C29.6781 17.8756 31.4735 16.2895 31.4735 12.7979C31.4624 9.60363 29.645 7.86328 27.7175 7.86328ZM27.0566 15.4524C26.4067 15.4524 26.0212 15.2211 25.7568 14.9347L25.7458 10.8483C26.0322 10.5288 26.4287 10.3085 27.0566 10.3085C28.0589 10.3085 28.7528 11.432 28.7528 12.875C28.7528 14.3509 28.0699 15.4524 27.0566 15.4524Z" fill="#635BFF"/>
<path fill-rule="evenodd" clip-rule="evenodd" d="M19.2026 7.21361L21.9673 6.61881V4.38281L19.2026 4.96659V7.21361Z" fill="#635BFF"/>
<path d="M21.9673 8.05078H19.2026V17.6886H21.9673V8.05078Z" fill="#635BFF"/>
<path fill-rule="evenodd" clip-rule="evenodd" d="M16.24 8.86646L16.0638 8.05136H13.6846V17.6892H16.4383V11.1575C17.0881 10.3094 18.1896 10.4636 18.531 10.5847V8.05136C18.1786 7.91916 16.8899 7.67686 16.24 8.86646Z" fill="#635BFF"/>
<path fill-rule="evenodd" clip-rule="evenodd" d="M10.7327 5.66016L8.04518 6.23291L8.03418 15.0557C8.03418 16.6859 9.25678 17.8865 10.887 17.8865C11.7902 17.8865 12.451 17.7212 12.8145 17.523V15.287C12.4621 15.4302 10.7217 15.9369 10.7217 14.3067V10.3965H12.8145V8.05036H10.7217L10.7327 5.66016Z" fill="#635BFF"/>
<path fill-rule="evenodd" clip-rule="evenodd" d="M3.28671 10.8483C3.28671 10.4187 3.63918 10.2535 4.22296 10.2535C5.06007 10.2535 6.1175 10.5068 6.9546 10.9584V8.36998C6.0404 8.00648 5.13718 7.86328 4.22296 7.86328C1.98698 7.86328 0.5 9.03088 0.5 10.9805C0.5 14.0205 4.68558 13.5359 4.68558 14.8466C4.68558 15.3533 4.24499 15.5185 3.62817 15.5185C2.71395 15.5185 1.5464 15.144 0.621161 14.6373V17.2588C1.64552 17.6994 2.6809 17.8867 3.62817 17.8867C5.9192 17.8867 7.4943 16.7521 7.4943 14.7805C7.4833 11.4981 3.28671 12.0819 3.28671 10.8483Z" fill="#635BFF"/>
</g>
<defs>
<clipPath id="clip0_2648_27005">
<rect width="40" height="24" fill="white" transform="translate(0.5)"/>
</clipPath>
</defs>
</svg>
