<svg width="16" height="16" viewBox="0 0 16 16" fill="none" xmlns="http://www.w3.org/2000/svg">
<path d="M8.00016 1.33334C4.32683 1.33334 1.3335 4.32668 1.3335 8.00001C1.3335 11.6733 4.32683 14.6667 8.00016 14.6667C11.6735 14.6667 14.6668 11.6733 14.6668 8.00001C14.6668 4.32668 11.6735 1.33334 8.00016 1.33334ZM11.1868 6.46668L7.40683 10.2467C7.3135 10.34 7.18683 10.3933 7.0535 10.3933C6.92016 10.3933 6.7935 10.34 6.70016 10.2467L4.8135 8.36001C4.62016 8.16668 4.62016 7.84668 4.8135 7.65334C5.00683 7.46001 5.32683 7.46001 5.52016 7.65334L7.0535 9.18668L10.4802 5.76001C10.6735 5.56668 10.9935 5.56668 11.1868 5.76001C11.3802 5.95334 11.3802 6.26668 11.1868 6.46668Z" fill="url(#paint0_linear_3033_19884)"/>
<defs>
<linearGradient id="paint0_linear_3033_19884" x1="4.30689" y1="3.51914" x2="14.749" y2="13.9583" gradientUnits="userSpaceOnUse">
<stop stop-color="#A755FF"/>
<stop offset="1" stop-color="#6800D7"/>
</linearGradient>
</defs>
</svg>
