<svg width="24" height="25" viewBox="0 0 24 25" fill="none" xmlns="http://www.w3.org/2000/svg">
<g id="vuesax/bold/tick-circle">
<g id="tick-circle">
<path id="Vector" d="M12 2.0451C6.49 2.0451 2 6.5351 2 12.0451C2 17.5551 6.49 22.0451 12 22.0451C17.51 22.0451 22 17.5551 22 12.0451C22 6.5351 17.51 2.0451 12 2.0451ZM16.78 9.7451L11.11 15.4151C10.97 15.5551 10.78 15.6351 10.58 15.6351C10.38 15.6351 10.19 15.5551 10.05 15.4151L7.22 12.5851C6.93 12.2951 6.93 11.8151 7.22 11.5251C7.51 11.2351 7.99 11.2351 8.28 11.5251L10.58 13.8251L15.72 8.68511C16.01 8.39511 16.49 8.39511 16.78 8.68511C17.07 8.97511 17.07 9.4451 16.78 9.7451Z" fill="url(#paint0_linear_2025_5193)"/>
</g>
</g>
<defs>
<linearGradient id="paint0_linear_2025_5193" x1="6.46009" y1="5.32379" x2="22.1233" y2="20.9826" gradientUnits="userSpaceOnUse">
<stop stop-color="#A755FF"/>
<stop offset="1" stop-color="#6800D7"/>
</linearGradient>
</defs>
</svg>
