<svg width="20" height="21" viewBox="0 0 20 21" fill="none" xmlns="http://www.w3.org/2000/svg">
<g id="vuesax/bold/tick-circle">
<g id="tick-circle">
<path id="Vector" d="M9.99935 2.21176C5.40768 2.21176 1.66602 5.95343 1.66602 10.5451C1.66602 15.1368 5.40768 18.8784 9.99935 18.8784C14.591 18.8784 18.3327 15.1368 18.3327 10.5451C18.3327 5.95343 14.591 2.21176 9.99935 2.21176ZM13.9827 8.62843L9.25768 13.3534C9.14102 13.4701 8.98268 13.5368 8.81602 13.5368C8.64935 13.5368 8.49102 13.4701 8.37435 13.3534L6.01602 10.9951C5.77435 10.7534 5.77435 10.3534 6.01602 10.1118C6.25768 9.87009 6.65768 9.87009 6.89935 10.1118L8.81602 12.0284L13.0993 7.7451C13.341 7.50343 13.741 7.50343 13.9827 7.7451C14.2243 7.98676 14.2243 8.37843 13.9827 8.62843Z" fill="url(#paint0_linear_2083_8480)"/>
</g>
</g>
<defs>
<linearGradient id="paint0_linear_2083_8480" x1="5.38276" y1="4.944" x2="18.4354" y2="17.993" gradientUnits="userSpaceOnUse">
<stop stop-color="#A755FF"/>
<stop offset="1" stop-color="#6800D7"/>
</linearGradient>
</defs>
</svg>
