<svg xmlns="http://www.w3.org/2000/svg" width="32" height="33" viewBox="0 0 32 33" fill="none">
<path opacity="0.4" d="M21.586 3.21179H10.4127C5.55935 3.21179 2.66602 6.10513 2.66602 10.9585V22.1185C2.66602 26.9851 5.55935 29.8785 10.4127 29.8785H21.5727C26.426 29.8785 29.3193 26.9851 29.3193 22.1318V10.9585C29.3327 6.10513 26.4394 3.21179 21.586 3.21179Z" fill="#D0B0F3"/>
<path d="M22.4386 13.0918C22.3453 12.8651 22.1586 12.6784 21.932 12.5851C21.8253 12.5451 21.7053 12.5184 21.5853 12.5184H19.1053C18.5853 12.5184 18.172 12.9318 18.172 13.4518C18.172 13.9718 18.5853 14.3851 19.1053 14.3851H19.3453L16.532 17.1984L15.172 15.1718C15.012 14.9451 14.772 14.7851 14.492 14.7584C14.1986 14.7318 13.9453 14.8251 13.7453 15.0251L9.77195 18.9984C9.41195 19.3584 9.41195 19.9451 9.77195 20.3184C9.95862 20.5051 10.1853 20.5851 10.4253 20.5851C10.6653 20.5851 10.9053 20.4918 11.0786 20.3184L14.252 17.1451L15.612 19.1718C15.772 19.3984 16.012 19.5584 16.292 19.5851C16.5853 19.6118 16.8386 19.5184 17.0386 19.3184L20.6653 15.6918V15.9318C20.6653 16.4518 21.0786 16.8651 21.5986 16.8651C22.1186 16.8651 22.532 16.4518 22.532 15.9318V13.4384C22.5053 13.3184 22.492 13.1984 22.4386 13.0918Z" fill="#D0B0F3"/>
</svg>