<svg width="48" height="49" viewBox="0 0 48 49" fill="none" xmlns="http://www.w3.org/2000/svg">
<g id="vuesax/bulk/trend-up">
<g id="trend-up">
<g id="trend-up_2">
<path id="Vector" opacity="0.4" d="M32.38 4.0451H15.62C8.34 4.0451 4 8.3851 4 15.6651V32.4051C4 39.7051 8.34 44.0451 15.62 44.0451H32.36C39.64 44.0451 43.98 39.7051 43.98 32.4251V15.6651C44 8.3851 39.66 4.0451 32.38 4.0451Z" fill="#D0B0F3"/>
<path id="Vector_2" d="M33.6609 18.8651C33.5209 18.5251 33.2409 18.2451 32.9009 18.1051C32.7409 18.0451 32.5609 18.0051 32.3809 18.0051H28.6609C27.8809 18.0051 27.2609 18.6251 27.2609 19.4051C27.2609 20.1851 27.8809 20.8051 28.6609 20.8051H29.0209L24.8009 25.0251L22.7609 21.9851C22.5209 21.6451 22.1609 21.4051 21.7409 21.3651C21.3009 21.3251 20.9209 21.4651 20.6209 21.7651L14.6609 27.7251C14.1209 28.2651 14.1209 29.1451 14.6609 29.7051C14.9409 29.9851 15.2809 30.1051 15.6409 30.1051C16.0009 30.1051 16.3609 29.9651 16.6209 29.7051L21.3809 24.9451L23.4209 27.9851C23.6609 28.3251 24.0209 28.5651 24.4409 28.6051C24.8809 28.6451 25.2609 28.5051 25.5609 28.2051L31.0009 22.7651V23.1251C31.0009 23.9051 31.6209 24.5251 32.4009 24.5251C33.1809 24.5251 33.8009 23.9051 33.8009 23.1251V19.3851C33.7609 19.2051 33.7409 19.0251 33.6609 18.8651Z" fill="#D0B0F3"/>
</g>
</g>
</g>
</svg>
