<svg width="430" height="316" viewBox="0 0 430 316" fill="none" xmlns="http://www.w3.org/2000/svg">
<rect x="386.547" y="306.836" width="11.6482" height="11.6482" rx="5" transform="rotate(155 386.547 306.836)" fill="#E8D9F9"/>
<rect x="13.8955" y="30.7564" width="11.6482" height="11.6482" rx="5" transform="rotate(-25 13.8955 30.7564)" fill="#E8D9F9"/>
<rect x="150.346" y="86.1428" width="16.3075" height="16.3075" rx="5" transform="rotate(155 150.346 86.1428)" fill="#BFE6CF"/>
<rect x="192.088" y="6.91428" width="16.3075" height="16.3075" rx="5" transform="rotate(-25 192.088 6.91428)" fill="#BFE6CF"/>
<rect x="28.1689" y="167.577" width="11.6482" height="11.6482" rx="5" transform="rotate(155 28.1689 167.577)" fill="#E8D9F9"/>
<rect x="372.272" y="170.015" width="11.6482" height="11.6482" rx="5" transform="rotate(-25 372.272 170.015)" fill="#E8D9F9"/>
<rect x="115.168" y="142.989" width="9.31857" height="9.31857" rx="4.65929" transform="rotate(155 115.168 142.989)" fill="#E8D9F9"/>
<rect x="285.273" y="194.603" width="9.31857" height="9.31857" rx="4.65929" transform="rotate(-25 285.273 194.603)" fill="#E8D9F9"/>
<rect x="300.375" y="114.513" width="16.3075" height="16.3075" rx="5" transform="rotate(155 300.375 114.513)" fill="#E8D9F9"/>
<rect x="100.065" y="223.079" width="16.3075" height="16.3075" rx="5" transform="rotate(-25 100.065 223.079)" fill="#E8D9F9"/>
<rect x="15.7695" y="102.089" width="16.3075" height="16.3075" rx="5" transform="rotate(155 15.7695 102.089)" fill="#BFE6CF"/>
<rect x="384.671" y="235.504" width="16.3075" height="16.3075" rx="5" transform="rotate(-25 384.671 235.504)" fill="#BFE6CF"/>
<path d="M429.343 104.137L427.008 90.8907L439.647 95.4909L429.343 104.137Z" fill="#E8D9F9"/>
<path d="M346.247 37.6974L333.001 35.3618L341.646 25.0584L346.247 37.6974Z" fill="#BFE6CF"/>
<path d="M54.1937 299.894L67.4396 302.23L58.7939 312.534L54.1937 299.894Z" fill="#BFE6CF"/>
<circle cx="171.08" cy="213.551" r="5.82411" transform="rotate(180 171.08 213.551)" fill="#EAF7EF"/>
<circle cx="229.362" cy="124.041" r="5.82411" fill="#EAF7EF"/>
</svg>
