<svg width="14" height="14" viewBox="0 0 14 14" fill="none" xmlns="http://www.w3.org/2000/svg">
<path d="M1.40712 10.0465C0.623951 8.72515 0.350008 7.1634 0.63672 5.65441C0.923432 4.14541 1.75108 2.79296 2.96429 1.85095C4.1775 0.908945 5.69283 0.442161 7.22582 0.538233C8.7588 0.634304 10.204 1.28663 11.2901 2.37273C12.3762 3.45884 13.0285 4.90404 13.1246 6.43702C13.2207 7.97 12.7539 9.48533 11.8119 10.6985C10.8699 11.9118 9.51742 12.7394 8.00843 13.0261C6.49944 13.3128 4.93768 13.0389 3.61636 12.2557V12.2557L1.43342 12.8738C1.34398 12.8999 1.24916 12.9015 1.15888 12.8785C1.06861 12.8554 0.986204 12.8084 0.920313 12.7425C0.854423 12.6766 0.807471 12.5942 0.784378 12.504C0.761286 12.4137 0.762903 12.3188 0.789061 12.2294L1.40712 10.0465Z" stroke="#797596" stroke-width="1.05202" stroke-linecap="round" stroke-linejoin="round"/>
</svg>
