<svg width="15" height="13" viewBox="0 0 15 13" fill="none" xmlns="http://www.w3.org/2000/svg">
<path d="M7.10099 12.0981C7.10099 12.0981 0.525879 8.41601 0.525879 3.94494C0.525879 3.15454 0.799728 2.38855 1.30083 1.7773C1.80194 1.16604 2.49935 0.747291 3.2744 0.59228C4.04946 0.437269 4.85428 0.555578 5.55193 0.927077C6.24959 1.29858 6.79698 1.90032 7.10099 2.62992V2.62992C7.40499 1.90032 7.95238 1.29858 8.65004 0.927077C9.3477 0.555578 10.1525 0.437269 10.9276 0.59228C11.7026 0.747291 12.4 1.16604 12.9011 1.7773C13.4022 2.38855 13.6761 3.15454 13.6761 3.94494C13.6761 8.41601 7.10099 12.0981 7.10099 12.0981Z" stroke="#797596" stroke-width="1.05202" stroke-linecap="round" stroke-linejoin="round"/>
</svg>
