<svg width="15" height="15" viewBox="0 0 15 15" fill="none" xmlns="http://www.w3.org/2000/svg">
<path d="M13.1694 0.547253L0.91341 3.99918C0.809081 4.02771 0.716081 4.0877 0.647078 4.17099C0.578074 4.25428 0.536424 4.35681 0.527799 4.46462C0.519173 4.57244 0.543993 4.68029 0.598877 4.77349C0.653762 4.86669 0.736041 4.9407 0.834509 4.98545L6.4628 7.64837C6.57305 7.69943 6.66159 7.78797 6.71265 7.89822L9.37557 13.5265C9.42032 13.625 9.49433 13.7073 9.58753 13.7621C9.68073 13.817 9.78858 13.8418 9.8964 13.8332C10.0042 13.8246 10.1067 13.7829 10.19 13.7139C10.2733 13.6449 10.3333 13.5519 10.3618 13.4476L13.8138 1.19161C13.8399 1.10218 13.8415 1.00735 13.8185 0.917075C13.7954 0.826798 13.7484 0.744396 13.6825 0.678506C13.6166 0.612615 13.5342 0.565663 13.4439 0.54257C13.3537 0.519478 13.2588 0.521095 13.1694 0.547253V0.547253Z" stroke="#797596" stroke-width="1.05202" stroke-linecap="round" stroke-linejoin="round"/>
<path d="M6.63721 7.72683L9.60916 4.75488" stroke="#797596" stroke-width="1.05202" stroke-linecap="round" stroke-linejoin="round"/>
</svg>
